<?xml version="1.0" encoding="UTF-8"?>
<svg id="Layer_1" data-name="Layer 1" xmlns="http://www.w3.org/2000/svg" viewBox="0 0 1371.35 799.21">
  <defs>
    <style>
      .cls-1 {
        opacity: .72;
      }

      .cls-2, .cls-3 {
        opacity: .5;
      }

      .cls-4, .cls-5 {
        opacity: .3;
      }

      .cls-4, .cls-6, .cls-7, .cls-8, .cls-9, .cls-10, .cls-11, .cls-3 {
        fill: none;
        stroke: #845b36;
        stroke-miterlimit: 10;
        stroke-width: 2px;
      }

      .cls-4, .cls-6, .cls-7, .cls-8, .cls-9, .cls-11 {
        isolation: isolate;
      }

      .cls-12, .cls-8 {
        opacity: .4;
      }

      .cls-6 {
        opacity: .7;
      }

      .cls-7 {
        opacity: .05;
      }

      .cls-13, .cls-9 {
        opacity: .2;
      }

      .cls-11 {
        opacity: .1;
      }
    </style>
  </defs>
  <path class="cls-10" d="m85.69,747.81l-.29-4c38-2.83,67.77-16.55,88.57-40.79,36.52-42.55,35.92-105.26,34-130.24-.9-10.61-.25-21.29,1.92-31.71,5.41-25.16,18.48-44.25,38.83-56.77,26.83-16.48,61.74-18.42,86.31-17.14,15.92.81,31.74,3.07,47.25,6.76,42.5,9,70.52,7.23,80.95-5.18,7.92-9.43,4.14-23.16,1.19-30.51-3.99-9.63-5.28-20.16-3.73-30.46,5.78-36.15,43.27-50.45,65.1-55.76,14.93-3.52,29.04-9.88,41.55-18.75,24.85-17.91,30.22-37.57,31.35-45.21,1.58-10.44-8.39-21.28-18.94-25.73-9.81-4.14-18.72-2.58-23.83,4.18-10.73,14.16-22.24,21.67-34.2,22.31-15.07.81-25.09-9.64-25.51-10.09l2.91-2.74c.09.09,9.24,9.58,22.44,8.83,10.71-.59,21.2-7.56,31.17-20.73,6.29-8.3,17-10.34,28.57-5.45,11.8,5,23.29,17.19,21.35,30-1.23,8.14-6.92,29.1-33,47.86-12.93,9.18-27.52,15.77-42.96,19.4-20.86,5.08-56.67,18.65-62.09,52.52-1.43,9.59-.23,19.38,3.48,28.34,3.29,8.17,7.43,23.54-1.84,34.57-11.6,13.81-40.18,16-84.93,6.5-.9-.23-80.8-20.68-130.55,9.91-19.39,11.91-31.84,30.15-37,54.19-2.09,10.04-2.71,20.34-1.85,30.56,2,25.48,2.58,89.46-34.92,133.16-21.53,25.07-52.25,39.26-91.3,42.17Z"/>
  <path class="cls-9" d="m584.52,260.17l-1.2-.54c-11.6-4.89-22.28-2.85-28.57,5.45-10,13.17-20.46,20.14-31.17,20.73-5.35.24-10.66-1.02-15.33-3.64-2.72-1.27-5.26-2.89-7.56-4.82l-2.47,2.33c2.43,2.39,5.19,4.41,8.21,6,4.78,2.24,10.03,3.27,15.3,3,12-.64,23.47-8.15,34.2-22.31,5.11-6.76,14-8.32,23.83-4.18,1,.42,2,.89,3,1.42,10.18,4.69,19.51,15.19,18,25.31-1.15,7.64-6.52,27.34-31.41,45.21-12.51,8.87-26.62,15.23-41.55,18.75-21.83,5.31-59.32,19.61-65.1,55.76-1.55,10.31-.26,20.84,3.72,30.47,3,7.35,6.73,21.08-1.19,30.51-10.43,12.41-38.45,14.2-80.95,5.18-15.51-3.69-31.33-5.95-47.25-6.76-24.57-1.28-59.48.66-86.31,17.14-20.35,12.52-33.42,31.61-38.83,56.77-2.17,10.42-2.82,21.1-1.92,31.71,1.95,25,2.55,87.69-34,130.24-20.8,24.24-50.6,38-88.57,40.79l.21,2.83c38.15-3.23,68.23-17.35,89.39-42,37.5-43.7,36.92-107.68,34.92-133.16-.86-10.22-.24-20.52,1.85-30.56,5.17-24,17.62-42.28,37-54.19,49.75-30.59,129.65-10.14,130.55-9.91,44.75,9.5,73.33,7.31,84.93-6.5,9.27-11,5.13-26.4,1.84-34.57-3.71-8.96-4.91-18.75-3.48-28.34,5.42-33.87,41.23-47.44,62.09-52.52,15.43-3.63,30.01-10.21,42.94-19.38,26.12-18.76,31.81-39.72,33-47.86,1.79-11.55-7.54-22.69-18.12-28.36Z"/>
  <path class="cls-10" d="m1056.58,134.33c.46-1.97-.76-3.94-2.72-4.4-1.97-.46-3.94.75-4.41,2.72-.46,1.97.76,3.94,2.73,4.4,1.96.46,3.93-.75,4.4-2.72Z"/>
  <path class="cls-10" d="m497.95,257.22c.46-1.97-.75-3.94-2.72-4.4-1.97-.46-3.94.76-4.4,2.72-.47,1.97.75,3.94,2.72,4.4,1.97.46,3.94-.75,4.4-2.72Z"/>
  <path class="cls-10" d="m607.26,383.35c.62-2.62-1-5.24-3.62-5.86-2.62-.62-5.24,1-5.86,3.62-.62,2.62,1,5.24,3.62,5.86,2.62.62,5.24-1,5.86-3.62Z"/>
  <path class="cls-10" d="m499.26,386.35c.62-2.62-1-5.24-3.62-5.86-2.62-.62-5.24,1-5.86,3.62-.62,2.62,1,5.24,3.62,5.86,2.62.62,5.24-1,5.86-3.62Z"/>
  <g class="cls-1">
    <path class="cls-3" d="m647.54,6.99c.62-2.62-1-5.24-3.62-5.86-2.62-.62-5.24,1-5.86,3.62-.62,2.62,1,5.24,3.62,5.86,2.62.62,5.24-1,5.86-3.62Z"/>
    <path class="cls-3" d="m555.41,199.44c.87-3.67-1.41-7.35-5.08-8.22-3.67-.87-7.35,1.41-8.22,5.08-.87,3.67,1.41,7.35,5.08,8.22,3.67.87,7.35-1.41,8.22-5.08Z"/>
    <path class="cls-3" d="m970.05,365.79c.86-3.67-1.41-7.35-5.08-8.22-3.67-.87-7.35,1.41-8.22,5.08-.86,3.67,1.41,7.35,5.08,8.22,3.67.87,7.35-1.41,8.22-5.08Z"/>
    <path class="cls-3" d="m186.35,203.84c.87-3.67-1.41-7.35-5.08-8.22-3.67-.87-7.35,1.41-8.22,5.08-.87,3.67,1.41,7.35,5.08,8.22,3.67.87,7.35-1.41,8.22-5.08Z"/>
    <path class="cls-3" d="m1035.12,246.64c.87-3.67-1.41-7.35-5.08-8.22-3.67-.87-7.35,1.41-8.21,5.08-.87,3.67,1.4,7.35,5.08,8.22,3.67.87,7.35-1.41,8.21-5.08Z"/>
    <path class="cls-3" d="m332.43,242.52c.46-1.97-.75-3.94-2.72-4.4-1.97-.46-3.94.75-4.4,2.72-.46,1.97.75,3.94,2.72,4.4,1.97.47,3.94-.75,4.4-2.72Z"/>
    <path class="cls-3" d="m441.67,112.89c.46-1.97-.76-3.94-2.72-4.4-1.97-.46-3.94.75-4.4,2.72-.46,1.97.75,3.94,2.72,4.4,1.97.46,3.94-.76,4.4-2.72Z"/>
    <path class="cls-3" d="m256.63,63.33c.46-1.97-.75-3.94-2.72-4.4-1.97-.47-3.94.75-4.4,2.72-.46,1.97.75,3.94,2.72,4.4,1.97.46,3.94-.75,4.4-2.72Z"/>
    <path class="cls-3" d="m832.41,24.62c.46-1.97-.75-3.94-2.72-4.4-1.97-.46-3.94.75-4.4,2.72-.47,1.97.75,3.94,2.72,4.4,1.97.46,3.94-.75,4.4-2.72Z"/>
    <path class="cls-3" d="m93.81,315.63c.46-1.97-.75-3.94-2.72-4.4-1.97-.47-3.94.75-4.4,2.72-.46,1.97.75,3.94,2.72,4.4,1.97.46,3.94-.75,4.4-2.72Z"/>
    <path class="cls-3" d="m290.8,540.62c.46-1.97-.75-3.94-2.72-4.4-1.97-.46-3.94.75-4.4,2.72-.46,1.97.75,3.94,2.72,4.4,1.97.46,3.94-.75,4.4-2.72Z"/>
    <path class="cls-3" d="m326.8,678.61c.46-1.97-.75-3.94-2.72-4.4-1.97-.46-3.94.75-4.4,2.72-.46,1.97.75,3.94,2.72,4.4,1.97.47,3.94-.75,4.4-2.72Z"/>
    <path class="cls-3" d="m1175.57,145.33c.47-1.97-.75-3.94-2.72-4.4-1.97-.46-3.94.75-4.4,2.72-.47,1.97.75,3.94,2.72,4.4s3.94-.75,4.4-2.72Z"/>
    <path class="cls-3" d="m1267.34,528.09c.47-1.97-.75-3.94-2.72-4.4-1.96-.46-3.94.76-4.4,2.72-.46,1.97.75,3.94,2.72,4.4,1.97.46,3.94-.75,4.4-2.72Z"/>
    <path class="cls-3" d="m1179.34,560.09c.47-1.97-.75-3.94-2.72-4.4-1.96-.47-3.94.75-4.4,2.72-.46,1.97.75,3.94,2.72,4.4,1.97.46,3.94-.75,4.4-2.72Z"/>
    <path class="cls-3" d="m1284.75,397.42c.46-1.97-.76-3.94-2.72-4.4-1.97-.46-3.94.75-4.41,2.72-.46,1.97.76,3.94,2.72,4.4,1.97.46,3.94-.75,4.41-2.72Z"/>
    <path class="cls-3" d="m409.32,14.46c.9-3.82-1.46-7.64-5.28-8.54-3.82-.9-7.64,1.46-8.54,5.28-.9,3.82,1.46,7.64,5.28,8.54,3.82.9,7.64-1.46,8.54-5.28Z"/>
    <path class="cls-3" d="m872.7,272.61c.46-1.97-.75-3.94-2.72-4.4-1.97-.46-3.94.75-4.4,2.72-.46,1.97.76,3.94,2.72,4.4,1.97.47,3.94-.75,4.4-2.72Z"/>
    <path class="cls-3" d="m1047,577.38c.46-1.97-.75-3.94-2.72-4.4-1.97-.46-3.94.75-4.4,2.72-.47,1.97.75,3.94,2.72,4.4,1.96.46,3.94-.75,4.4-2.72Z"/>
    <path class="cls-3" d="m1137,707.37c.46-1.97-.76-3.94-2.72-4.4-1.97-.46-3.94.75-4.41,2.72-.46,1.97.76,3.94,2.72,4.4,1.97.46,3.94-.75,4.41-2.72Z"/>
    <path class="cls-3" d="m997,491.37c.47-1.97-.75-3.94-2.72-4.4-1.96-.47-3.94.75-4.4,2.72-.46,1.97.75,3.94,2.72,4.4,1.97.46,3.94-.75,4.4-2.72Z"/>
    <path class="cls-3" d="m176.04,627.38c.46-1.97-.75-3.94-2.72-4.4-1.97-.46-3.94.76-4.4,2.72-.46,1.97.75,3.94,2.72,4.4,1.97.46,3.94-.75,4.4-2.72Z"/>
    <path class="cls-3" d="m210.04,609.39c.46-1.97-.75-3.94-2.72-4.4-1.97-.46-3.94.75-4.4,2.72-.46,1.97.75,3.94,2.72,4.4,1.97.46,3.94-.75,4.4-2.72Z"/>
    <path class="cls-3" d="m1346.24,364.94c.47-1.97-.75-3.94-2.72-4.4-1.97-.46-3.94.75-4.4,2.72-.47,1.97.75,3.94,2.72,4.4,1.97.46,3.94-.75,4.4-2.72Z"/>
    <path class="cls-3" d="m1370.25,428.93c.46-1.97-.76-3.94-2.72-4.4-1.97-.46-3.94.75-4.41,2.72-.46,1.97.76,3.94,2.72,4.4,1.97.46,3.94-.75,4.41-2.72Z"/>
    <path class="cls-3" d="m1059.26,380.94c.46-1.97-.76-3.94-2.72-4.4-1.97-.46-3.94.75-4.41,2.72-.46,1.97.76,3.94,2.73,4.4,1.96.46,3.93-.75,4.4-2.72Z"/>
    <path class="cls-3" d="m1152.25,608.93c.47-1.97-.75-3.94-2.72-4.4-1.96-.46-3.94.75-4.4,2.72-.46,1.97.75,3.94,2.72,4.4,1.97.46,3.94-.76,4.4-2.72Z"/>
    <path class="cls-3" d="m335.86,392.63c.46-1.97-.75-3.94-2.72-4.4-1.97-.46-3.94.75-4.4,2.72-.46,1.97.75,3.94,2.72,4.4,1.97.46,3.94-.75,4.4-2.72Z"/>
    <path class="cls-3" d="m677.39,269.33c.62-2.62-1-5.24-3.62-5.86-2.62-.62-5.24,1-5.86,3.62-.62,2.62,1,5.24,3.62,5.86,2.62.62,5.24-1,5.86-3.62Z"/>
    <path class="cls-3" d="m1110.26,462.39c.62-2.62-1-5.24-3.62-5.86-2.62-.62-5.24,1-5.86,3.62-.61,2.62,1.01,5.24,3.62,5.86,2.62.62,5.24-1,5.86-3.62Z"/>
    <path class="cls-3" d="m1009.5,78.66c.61-2.62-1.01-5.24-3.62-5.86-2.62-.62-5.24,1-5.86,3.62-.62,2.62,1,5.24,3.62,5.86,2.62.62,5.24-1,5.86-3.62Z"/>
    <path class="cls-3" d="m1195.2,331.31c.61-2.62-1.01-5.24-3.62-5.86-2.62-.62-5.25,1-5.86,3.62-.62,2.62,1,5.24,3.62,5.86,2.62.62,5.24-1,5.86-3.62Z"/>
    <path class="cls-3" d="m1294.19,661.29c.62-2.62-1-5.24-3.62-5.86-2.62-.62-5.24,1-5.86,3.62-.62,2.62,1.01,5.24,3.62,5.86,2.62.62,5.24-1,5.86-3.62Z"/>
    <path class="cls-3" d="m1228.21,194.95c.62-2.62-1.01-5.24-3.62-5.86-2.62-.62-5.24,1-5.86,3.62-.62,2.62,1,5.24,3.62,5.86,2.62.62,5.24-1,5.86-3.62Z"/>
    <path class="cls-3" d="m682.58,461.94c.62-2.62-1-5.24-3.62-5.86-2.62-.62-5.24,1-5.86,3.62-.62,2.62,1,5.24,3.62,5.86,2.62.62,5.24-1,5.86-3.62Z"/>
    <path class="cls-3" d="m537.59,558.93c.62-2.62-1-5.24-3.62-5.86-2.62-.62-5.24,1-5.86,3.62-.62,2.62,1,5.24,3.62,5.86,2.62.62,5.24-1,5.86-3.62Z"/>
    <path class="cls-3" d="m429.6,496.94c.62-2.62-1-5.24-3.62-5.86-2.62-.62-5.24,1-5.86,3.62-.62,2.62,1,5.24,3.62,5.86,2.62.62,5.24-1,5.86-3.62Z"/>
    <path class="cls-3" d="m194.61,714.93c.62-2.62-1-5.24-3.62-5.86-2.62-.62-5.24,1-5.86,3.62-.62,2.62,1,5.24,3.62,5.86,2.62.62,5.24-1,5.86-3.62Z"/>
    <path class="cls-3" d="m10.61,475.94c.62-2.62-1-5.24-3.62-5.86-2.62-.62-5.24,1-5.86,3.62-.62,2.62,1,5.24,3.62,5.86,2.62.62,5.24-1,5.86-3.62Z"/>
    <path class="cls-3" d="m829.58,409.94c.62-2.62-1-5.24-3.62-5.86-2.62-.62-5.24,1-5.86,3.62-.62,2.62,1,5.24,3.62,5.86,2.62.62,5.24-1,5.86-3.62Z"/>
    <path class="cls-3" d="m837.58,536.93c.62-2.62-1-5.24-3.62-5.86-2.62-.62-5.24,1-5.86,3.62-.62,2.62,1,5.24,3.62,5.86,2.62.62,5.24-1,5.86-3.62Z"/>
    <path class="cls-3" d="m141.6,508.95c.62-2.62-1-5.24-3.62-5.86-2.62-.62-5.24,1-5.86,3.62-.62,2.62,1,5.24,3.62,5.86,2.62.62,5.24-1,5.86-3.62Z"/>
    <path class="cls-3" d="m792.58,136.95c.62-2.62-1-5.24-3.62-5.86-2.62-.62-5.24,1-5.86,3.62-.62,2.62,1,5.24,3.62,5.86,2.62.62,5.24-1,5.86-3.62Z"/>
    <g class="cls-2">
      <path class="cls-6" d="m636.99,89.81l-70.68-23.04.23-.71,71.32,20.96-.87,2.79Z"/>
    </g>
    <path class="cls-3" d="m642.45,90.22c.66-3.23-1.43-6.37-4.65-7.03-3.23-.66-6.37,1.43-7.03,4.65-.66,3.23,1.43,6.37,4.65,7.03,3.23.66,6.37-1.43,7.03-4.65Z"/>
    <g class="cls-2">
      <path class="cls-6" d="m357.99,323.81l-70.68-23.04.23-.71,71.32,20.96-.87,2.79Z"/>
    </g>
    <path class="cls-3" d="m363.43,324.22c.66-3.23-1.43-6.37-4.65-7.03-3.23-.66-6.37,1.43-7.03,4.65-.66,3.23,1.43,6.37,4.65,7.03,3.23.66,6.37-1.43,7.03-4.65Z"/>
    <g class="cls-2">
      <path class="cls-6" d="m762.99,347.81l-70.68-23.04.23-.71,71.32,20.96-.87,2.79Z"/>
    </g>
    <path class="cls-3" d="m768.45,348.22c.66-3.23-1.43-6.37-4.65-7.03-3.23-.66-6.37,1.43-7.03,4.65-.66,3.23,1.43,6.37,4.65,7.03s6.37-1.43,7.03-4.65Z"/>
  </g>
  <path class="cls-10" d="m402.34,243.11c-7.04,5.77-13.55,12.15-19.46,19.08l23.3-6.38,4.94-4.76-8.78-7.94Z"/>
  <path class="cls-10" d="m382.88,262.19s-6.07,37.43,57.56,109l17.93-10.32-52.19-105.06-23.3,6.38Z"/>
  <path class="cls-11" d="m382.88,262.19s-6.07,37.43,57.56,109l17.93-10.32-52.19-105.06-23.3,6.38Z"/>
  <path class="cls-10" d="m406.17,255.81s15,64.83,52.19,105.06l4.44-3.38-48.4-110.39-8.23,8.71Z"/>
  <path class="cls-10" d="m585.79,400.88s8.23,15.45,14.39,20.71c0,0,29.2,14.79,42-12.75,0,0-4.42-11.11-16-9.26,0,0-6.65-.05-9.18-3.81-1.26-1.86-2.47-3.75-3.82-5.54l-2.14-2.88-25.25,13.53Z"/>
  <path class="cls-8" d="m595.27,416.06c1.44,2,3.08,3.85,4.9,5.52,0,0,29.2,14.79,42-12.75-.92-2.08-2.24-3.96-3.88-5.54l-.43.29c-9.58,24.66-39.18,13.81-42.59,12.48Z"/>
  <path class="cls-10" d="m617.07,395.77c-1.26-1.86-2.47-3.75-3.82-5.54l-2.21-2.88-21.73,11.67,5.84,4.29,7.48,8.81,14,1.46s2.24-12.39,11.7-13.79l-.16-.37c-.64.03-1.27.09-1.9.19,0,0-6.67-.08-9.2-3.84Z"/>
  <path class="cls-10" d="m613.26,390.66l.16-.38-2.38-3-25.25,13.59s1.52,2.77,2.15,3.9c2.59.46,15.19-1.43,25.32-14.11Z"/>
  <path class="cls-10" d="m542.54,438.16s8.23,15.45,14.4,20.71c0,0,29.19,14.8,42-12.75,0,0-4.43-11.1-16-9.25,0,0-6.64,0-9.18-3.82-1.25-1.86-2.46-3.75-3.82-5.53l-2.21-2.91-25.19,13.55Z"/>
  <path class="cls-8" d="m552.04,453.35c1.43,2.01,3.07,3.86,4.9,5.52,0,0,29.19,14.8,42-12.75-.93-2.08-2.25-3.96-3.89-5.54l-.43.29c-9.58,24.67-39.21,13.81-42.58,12.48Z"/>
  <path class="cls-10" d="m573.82,433.05c-1.25-1.86-2.46-3.75-3.82-5.53l-2.21-2.91-21.73,11.66,5.85,4.29,7.47,8.79,14,1.45s2.25-12.39,11.7-13.78l-.16-.37c-.64.03-1.27.09-1.9.19,0,0-6.66-.02-9.2-3.79Z"/>
  <path class="cls-10" d="m568.81,426.54l.15-.39-1.17-1.54-25.25,13.55s.37.7,1,1.83c2.59.46,18.47,2.59,25.27-13.45Z"/>
  <path class="cls-10" d="m550.19,195.78v.06-.06Zm9.48,2.67c.06.46.24.89.53,1.25.65.67,1.54,1.07,2.48,1.11.96.04,1.92-.07,2.85-.31l.31-.07c1.15-.29,2.34-.39,3.52-.3,1.16.08,2.23.62,3,1.49.38.46.59,1.03.6,1.62,0,.28-.05.56-.17.81-.12.25-.29.48-.51.65-.61.34-1.3.51-2,.48h-.28c-2.92.21-5.73,1.25-8.08,3-.93.71-1.82,1.48-2.66,2.3-.32.31-.65.61-1,.92-.83.76-1.7,1.48-2.6,2.16-1.23,1.04-2.69,1.77-4.26,2.14-.29.09-.59.09-.88,0-1.42-3.48-3.63-6.59-6.45-9.08-1.88-1.65-4.1-2.86-6.51-3.54.25-.47.55-.91.91-1.31,1.66-1.88,3.62-3.48,5.79-4.74.43-.26.89-.5,1.34-.72.73-.35,1.44-.76,2.1-1.24.34-.27.65-.56,1-.86.48-.5,1.03-.93,1.63-1.27.49-.23.99-.43,1.51-.6l2.7-.89,7.48-2.6c-1.18.74-6.1,3.63-7.3,4.35-1.11.58-2.17,1.27-3.14,2.06-.52.47-1.12.31-1.25.5.3-.37.63-.7,1-1,.99-.75,2.06-1.39,3.19-1.91,2.44-1.18,4.81-2.51,7.08-4,.62-.36,1.23-.75,1.81-1.14.95-.69,1.98-1.28,3.07-1.74.44-.2.92-.3,1.41-.29.2.01.39.07.57.17.17.1.32.24.43.41.12.27.16.57.12.86-.22,1.49-1,2.85-2.18,3.79-.73.62-1.49,1.19-2.29,1.71-.68.46-1.39.95-2,1.5-1.2.82-2.19,1.93-2.86,3.22-.08.24-.11.5-.08.76l.07.35Z"/>
  <path class="cls-10" d="m535.01,203.83l1.64-1.42s11.51,1.14,15.44,15.49l-1.16,2.45-15.92-16.52Z"/>
  <path class="cls-10" d="m468.81,226.48s10.45-1.4,17.37-.62c1.66.2,3.34.2,5,0,1.94-.25,3.83-.75,5.65-1.47,1.01-.42,2.1-.62,3.2-.57.38,0,.76.08,1.11.25,0,0,2-3.57,5-2.25,0,0,1.51-3,4.49-1.81,0,0-.79-1.92,5.22-4.84,3.19-1.56,6.17-3.51,8.88-5.8l4.13-3.47s4.85-3.79,9.08-1.17c3.06,1.39,5.79,3.42,7.98,5.96,2.2,2.54,3.82,5.53,4.76,8.76,0,0,1.62,3.94-3.06,7.52l-18.8,20.06c-1.8,1.93-4.09,3.34-6.62,4.08l-32,9.39-13.08-9.15-8.14-18.89-.17-5.98Z"/>
  <path class="cls-9" d="m539.15,228.12c-3.73,4.54-10.89,8.14-10.89,8.14-3.72,4.64-11.83,7.2-11.83,7.2l-9.46,3.36c-13,6.28-12.37,1.55-12.37,1.55,1.83-6.12-2.47-3.53-2.47-3.53-5.82,5.11-14,7.09-14,7.09l11.81,8.2,32-9.39c2.53-.74,4.81-2.15,6.61-4.07l18.8-20.07c4.69-3.57,3.07-7.51,3.07-7.51-.72-2.51-1.86-4.88-3.37-7l-1.89-2.32-.23-.24c6.17,8.62-5.78,18.59-5.78,18.59Z"/>
  <g class="cls-5">
    <path class="cls-4" d="m562.09,188.99l-9.14,5-3.19,2.7s-.05.04-.08.05c-.03.01-.06.02-.09.02s-.06,0-.09-.02c-.03-.01-.05-.03-.08-.05-.04-.04-.07-.1-.07-.17s.02-.12.07-.16l3.22-2.74,9.18-5s.06-.02.09-.03c.03,0,.06,0,.09,0,.03,0,.06.02.08.04.02.02.04.05.06.07.02.05.03.1.02.15-.01.05-.04.09-.08.12h0Z"/>
  </g>
  <path class="cls-10" d="m438.43,351.27l-.32.66c-.69,1.37-.85,2.95-.46,4.44.4,1.48,1.32,2.77,2.6,3.62.87.55,1.87.86,2.9.88,1.03.02,2.04-.23,2.93-.74.83-.37,1.56-.95,2.1-1.68.55-.73.9-1.59,1.03-2.49.06-.41.03-.83-.07-1.23l-10.71-3.46Z"/>
  <g class="cls-5">
    <path class="cls-4" d="m551.52,192.35l-5.08,4.09s-.1.07-.17.07-.12-.02-.16-.07c-.04-.05-.05-.1-.05-.16s.02-.11.05-.16l5.09-4.09s.1-.07.16-.07.12.02.16.07c.04.05.06.1.05.16,0,.06-.02.11-.06.16h0Z"/>
  </g>
  <path class="cls-10" d="m416.88,257.03l-4.5,3.76,10.21,44s15.51,34.16,41.91,59.71c2.8,2.7,5.87,5.11,9.16,7.19,7.15,4.54,21,12.76,33.23,16.64,0,0,5.24,9.33,6.69,7.38,0,0,3.14,4.1,5.84,4.17,0,0-.34,2.51,3.87,4.82,0,0,13.16,21,14.81,27.49,0,0,1.72,6.35,7.51,6.11.65,0,1.3-.07,2-.08,3.18-.09,13.16-1.11,18.68-10.49.16-.28.33-.56.5-.83.76-1.17,1.23-2.51,1.37-3.91.13-1.39-.07-2.8-.6-4.09-.34-.8-.7-1.6-1-2.42-3.79-10.03-8.09-19.85-12.89-29.44l-18.66-24.77-14.99-13.82s20.51.7,36.45-.4c0,0,1,2.73,2.69,3,.22.73.6,1.4,1.12,1.95.52.55,1.17.98,1.88,1.24,0,0,14.12,25.51,16.19,32.86.67,2.36,2.18,5,2.09,7.42-.13,3.74,1.6,8.86,7.45,8.21,0,0,11.42-.75,23.58-13,.95-.93,1.63-2.11,1.94-3.41.42-1.82.22-3.74-.58-5.43-.77-1.62-1.37-3.32-1.78-5.07-1.1-4.94-15.86-29.31-15.34-33.8l-26.09-32-31-1.19c-1.97-.08-3.92-.32-5.85-.72-2.69-.55-6.88-1.14-8.93,0-.9.51-1.93.71-2.95.57-1.87-.3-3.77-.3-5.64,0-1.67-1.17-3.69-1.73-5.72-1.59,0,0-9.83-16.32-12.18-24.12l-17.2-31.68c-.36-4.01-1.54-7.91-3.47-11.45-1.93-3.54-4.57-6.64-7.75-9.11l-52.05,26.3Z"/>
  <path class="cls-9" d="m520.02,348.44s20.51.7,36.45-.4c0,0,1,2.73,2.69,3,.22.73.6,1.4,1.12,1.95s1.16.98,1.88,1.24c0,0,14.12,25.51,16.19,32.86.67,2.36,2.18,5,2.09,7.42-.13,3.74,1.6,8.86,7.45,8.21,0,0,8.2-.54,18.1-8.13-5.88,3-9.61,3.48-12,3-1.12-.23-2.12-.83-2.86-1.7-.74-.87-1.17-1.96-1.22-3.09-.07-1.4-.25-2.8-.53-4.18-1.2-5.67-4-10.87-8.06-15-11-11.41-11.72-18.82-11.49-21.55.08-.54.26-1.06.53-1.53.74-1.43-5.35-2.21-5.35-2.21-3.57-.66,1.72-7.46,1.72-7.46-5.1,2.55-6,.12-6.17-1.23-.03-.36-.01-.72.05-1.08.24-1.7-.48-2.23-1.18-2.37-.53-.09-1.07.02-1.52.31-.28.18-.59.29-.91.35s-.65.04-.97-.03c-.32-.07-.62-.21-.89-.4-.27-.19-.49-.43-.66-.71-.92-1.27-3.48-.22-3.48-.22-16.31,7.36-25.31.56-25.31.56-5.5-5.53-10.38-4.65-10.38-4.65,0,0,1,12.52,2.28,14.31l2.43,2.74Z"/>
  <path class="cls-10" d="m487.63,293.4s2.64,7.25,11.62,4.79c0,0,4.07-1.13,5.65.78l4.64,8.1s6.11-4.46,2.09-12.22c0,0-1.39-3.74-6.72-5.15-1.42-.35-2.91-.39-4.35-.13-1.74.29-4.57.37-5.92-1.79l-7.01,5.62Z"/>
  <path class="cls-9" d="m544.3,409.48c.27-1.54.06-3.12-.59-4.53-.66-1.41-1.74-2.59-3.09-3.38l-26.83-23.28c-2.13,0-4.18-.83-5.74-2.29-2.68-2.6-5.19-5.38-7.52-8.3-1.45-1.75-2.61-3.71-3.45-5.82-.33-.91-.92-1.71-1.68-2.31-.88-.62-1.93-.95-3-.94-.62-.01-1.23-.11-1.82-.31-1.41-.49-2.62-1.42-3.45-2.65-2.3-3.18-6.94-4.45-6.94-4.45l-3.08-2.26c-2.34-.6-4.45-1.87-6.07-3.67-.81-.99-1.31-2.2-1.43-3.48-.13-1.28.13-2.56.72-3.69,3.21-6.13,1.85-6.25,1.85-6.25l-10.82-4.29c-1.83,1.38-3.76,2.6-5.79,3.66-1.56.78-3.33,1.03-5.05.72-1.72-.31-3.29-1.16-4.49-2.42-4.12-4.56-7.33-9.85-9.47-15.61-.33-.89-.76-1.74-1.28-2.54-.72-1.07-1.38-2.19-1.95-3.35-.56-1.09-.9-2.29-.98-3.52-.08-1.23.09-2.46.5-3.62.33-.97.38-2.01.13-3.01-.25-.99-.78-1.89-1.54-2.59-.38-.37-.8-.68-1.27-.92-2-1.11-4.31-5.65-4.31-5.65-3.48,1.79-7.3-1.43-7.3-1.43l4.06,17.5s15.51,34.16,41.91,59.71c2.8,2.7,5.86,5.11,9.15,7.18,7.16,4.55,21,12.77,33.24,16.65,0,0,5.24,9.33,6.69,7.38,0,0,3.14,4.1,5.84,4.17,0,0-.34,2.51,3.87,4.82,0,0,13.16,21,14.81,27.49,0,0,1.72,6.35,7.51,6.11.65,0,1.3-.07,2-.08,2.73-.07,10.47-.85,16.1-7l-.06-.68c-7.84,5-10.74,1.82-11.57.4-.28-.49-.59-.96-.92-1.42-5.47-7.34-6.78-13.37-7-16.57-.12-1.16-.08-2.34.11-3.49h0Z"/>
  <path class="cls-10" d="m468.11,308.59s5.87,8.57-9.36,21.27c-.45.37-.92.72-1.4,1.06-2.91,2.08-14.76,10.93-18.67,19.8-.28.63-.34,1.33-.17,2,.43,1.66,1.34,3.17,2.63,4.31.8.74,1.84,1.18,2.93,1.26,1.09.08,2.17-.22,3.07-.84.12-.08.24-.17.35-.27.58-.51,1.02-1.15,1.3-1.86.93-2.32,4.48-9.52,14.54-16,0,0,14.26-9.21,15.81-19.9.51-2.85.45-5.77-.18-8.59-.62-2.82-1.8-5.5-3.45-7.87l-7.4,5.64Z"/>
  <path class="cls-11" d="m487.63,293.4s2.64,7.25,11.62,4.79c0,0,4.07-1.13,5.65.78l4.64,8.1s6.11-4.46,2.09-12.22c0,0-1.39-3.74-6.72-5.15-1.42-.35-2.91-.39-4.35-.13-1.74.29-4.57.37-5.92-1.79l-7.01,5.62Z"/>
  <path class="cls-11" d="m468.11,308.59s5.87,8.57-9.36,21.27c-.45.37-.92.72-1.4,1.06-2.91,2.08-14.76,10.93-18.67,19.8-.28.63-.34,1.33-.17,2,.43,1.66,1.34,3.17,2.63,4.31.8.74,1.84,1.18,2.93,1.26,1.09.08,2.17-.22,3.07-.84.12-.08.24-.17.35-.27.58-.51,1.02-1.15,1.3-1.86.93-2.32,4.48-9.52,14.54-16,0,0,14.26-9.21,15.81-19.9.51-2.85.45-5.77-.18-8.59-.62-2.82-1.8-5.5-3.45-7.87l-7.4,5.64Z"/>
  <path class="cls-10" d="m476.3,302.05c-2.41,2.85-5.38,5.18-8.73,6.83l-.09.05-1.8-2.14,8.83-6.87,1.79,2.13Z"/>
  <path class="cls-10" d="m449.13,279.04l36.62-26.85,15.07,27.11-37.46,29.58-14.23-29.84Z"/>
  <path class="cls-10" d="m495.37,287.1c-2.41,2.85-5.38,5.18-8.73,6.83h-.09l-1.81-2.13,8.83-6.87,1.8,2.17Z"/>
  <path class="cls-10" d="m440.95,277.58l14.62,31.47,7.8-.17-14.23-29.84-8.19-1.46Z"/>
  <path class="cls-4" d="m440.95,277.58l14.62,31.47,7.8-.17-14.23-29.84-8.19-1.46Z"/>
  <path class="cls-10" d="m485.76,252.19l-8.02-.11-36.79,25.5,8.19,1.46,36.62-26.85Z"/>
  <path class="cls-9" d="m485.76,252.19l-8.02-.11-36.79,25.5,8.19,1.46,36.62-26.85Z"/>
  <path class="cls-10" d="m463.43,281.63c1.67,0,3.03-1.36,3.03-3.03s-1.36-3.03-3.03-3.03-3.03,1.36-3.03,3.03,1.36,3.03,3.03,3.03Z"/>
  <path class="cls-10" d="m460.88,280.23c-.39-.59-.55-1.3-.47-2,.08-.7.41-1.35.93-1.83-.18.08-.36.17-.53.28-.33.21-.62.49-.85.82-.23.33-.39.69-.47,1.08-.08.39-.09.79-.02,1.18.07.39.22.77.43,1.1.21.33.49.62.82.85.33.23.69.39,1.08.47.39.08.79.09,1.18.02.39-.07.76-.22,1.1-.43.17-.11.33-.23.48-.37-.65.27-1.38.3-2.05.09-.67-.21-1.25-.66-1.63-1.26h0Z"/>
  <path class="cls-10" d="m473.2,294.88c2.62-1.29,3.59-4.68,2.16-7.58-1.43-2.9-4.71-4.2-7.33-2.91-2.62,1.29-3.59,4.69-2.16,7.59,1.43,2.9,4.71,4.2,7.33,2.91Z"/>
  <path class="cls-4" d="m473.2,294.88c2.62-1.29,3.59-4.68,2.16-7.58-1.43-2.9-4.71-4.2-7.33-2.91-2.62,1.29-3.59,4.69-2.16,7.59,1.43,2.9,4.71,4.2,7.33,2.91Z"/>
  <path class="cls-10" d="m465.88,291.92c-.61-1.15-.82-2.48-.58-3.76.24-1.28.91-2.45,1.91-3.3-.34.09-.68.21-1,.37-1.38.69-2.42,1.9-2.91,3.36-.49,1.46-.38,3.06.3,4.44.68,1.38,1.88,2.44,3.33,2.95,1.46.51,3.05.41,4.44-.25.32-.16.62-.34.9-.56-1.28.27-2.6.09-3.77-.5-1.16-.59-2.09-1.56-2.62-2.75h0Z"/>
  <path class="cls-9" d="m460.88,280.23c-.39-.59-.55-1.3-.47-2,.08-.7.41-1.35.93-1.83-.18.08-.36.17-.53.28-.33.21-.62.49-.85.82-.23.33-.39.69-.47,1.08-.08.39-.09.79-.02,1.18.07.39.22.77.43,1.1.21.33.49.62.82.85.33.23.69.39,1.08.47.39.08.79.09,1.18.02.39-.07.76-.22,1.1-.43.17-.11.33-.23.48-.37-.65.27-1.38.3-2.05.09-.67-.21-1.25-.66-1.63-1.26h0Z"/>
  <path class="cls-8" d="m465.88,291.92c-.61-1.15-.82-2.48-.58-3.76.24-1.28.91-2.45,1.91-3.3-.34.09-.68.21-1,.37-1.38.69-2.42,1.9-2.91,3.36-.49,1.46-.38,3.06.3,4.44.68,1.38,1.88,2.44,3.33,2.95,1.46.51,3.05.41,4.44-.25.32-.16.62-.34.9-.56-1.28.27-2.6.09-3.77-.5-1.16-.59-2.09-1.56-2.62-2.75h0Z"/>
  <path class="cls-10" d="m467.95,271.58l16.14-11.99,2.19,4.21-16.19,12.05-2.14-4.27Z"/>
  <path class="cls-9" d="m483.19,260.26l1.77,3.43-15.26,11.37.39.79,16.19-12.05-2.19-4.21-.9.67Z"/>
  <path class="cls-10" d="m475.17,280l13.81-10.67.7,1.38-13.98,10.77-.53-1.48Z"/>
  <path class="cls-10" d="m476.63,282.43l13.8-10.67.7,1.38-13.97,10.77-.53-1.48Z"/>
  <path class="cls-10" d="m477.72,285.16l13.81-10.67.7,1.38-13.98,10.78-.53-1.49Z"/>
  <path class="cls-10" d="m479.18,287.6l13.8-10.67.7,1.37-13.98,10.78-.52-1.48Z"/>
  <g class="cls-13">
    <path class="cls-9" d="m475.17,280l13.81-10.67.7,1.38-13.98,10.77-.53-1.48Z"/>
    <path class="cls-9" d="m476.63,282.43l13.8-10.67.7,1.38-13.97,10.77-.53-1.48Z"/>
    <path class="cls-9" d="m477.72,285.16l13.81-10.67.7,1.38-13.98,10.78-.53-1.49Z"/>
    <path class="cls-9" d="m479.18,287.6l13.8-10.67.7,1.37-13.98,10.78-.52-1.48Z"/>
  </g>
  <path class="cls-10" d="m461.87,236.2c-.32.5-.59.9-.79,1.17l.79-1.17Z"/>
  <path class="cls-10" d="m464.83,222.64l-.1-.1c-.23-.4-.45-.85-.69-1.33-.47-1.02-1.03-1.99-1.67-2.91-.14-3.05-.71-6.06-1.69-8.95-1.92-5.66-5.03-10.84-9.1-15.21-1.73-1.98-3.64-3.79-5.71-5.4-2.85-1.57-5.82-2.91-8.88-4-1.88-.74-3.84-1.26-5.84-1.53-8.75-1.13-17.6,1.23-24.63,6.56-9.51,7.36-14.79,20.05-13.45,32.35.46,4.09,1.59,8.07,3.34,11.79,3.46,7.39,9.05,13.58,16.06,17.77,1.16.69,2.29,1.44,3.38,2.24l1.34,4c14,6.43,32.89-2.26,39.94-7.63,11.54-8.78,12.94-17,11.59-24.49l-3.89-3.16Z"/>
  <path class="cls-10" d="m412.95,236.71c.08,1.51-.06,3.03-.44,4.5,1-1.23,3.38-4.19,3.45-5.8-.07-2.94-.99-5.8-2.66-8.23-1.12-1.61-2.59-2.94-4.29-3.92-3.14-2-2.11-2-5.73-1.93-1.63.16-3.18.79-4.45,1.82.23,0,1.6.31,1.85.33,1.69.21,3.31.82,4.72,1.78,4.23,3.08,6.94,6.62,7.55,11.45Z"/>
  <path class="cls-4" d="m412.95,236.71c.08,1.51-.06,3.03-.44,4.5,1-1.23,3.38-4.19,3.45-5.8-.07-2.94-.99-5.8-2.66-8.23-1.12-1.61-2.59-2.94-4.29-3.92-3.14-2-2.11-2-5.73-1.93-1.63.16-3.18.79-4.45,1.82.23,0,1.6.31,1.85.33,1.69.21,3.31.82,4.72,1.78,4.23,3.08,6.94,6.62,7.55,11.45Z"/>
  <path class="cls-10" d="m399.35,236.24c1.77,2.61,4.22,4.69,7.09,6,.84.36,1.75.52,2.67.46.91-.06,1.8-.33,2.58-.8,1.88-1.31,1.76-4,1.63-5.05-.8-4.92-3.5-9.33-7.52-12.27-1.22-.95-2.66-1.58-4.18-1.84-.85-.12-1.73.02-2.5.41-.41.23-.8.51-1.13.85h0c-.53.54-.94,1.18-1.22,1.88-.28.7-.41,1.45-.4,2.21.15,2.96,1.19,5.8,2.98,8.15h0Z"/>
  <path class="cls-9" d="m399.35,236.24c1.77,2.61,4.22,4.69,7.09,6,.84.36,1.75.52,2.67.46.91-.06,1.8-.33,2.58-.8,1.88-1.31,1.76-4,1.63-5.05-.8-4.92-3.5-9.33-7.52-12.27-1.22-.95-2.66-1.58-4.18-1.84-.85-.12-1.73.02-2.5.41-.41.23-.8.51-1.13.85h0c-.53.54-.94,1.18-1.22,1.88-.28.7-.41,1.45-.4,2.21.15,2.96,1.19,5.8,2.98,8.15h0Z"/>
  <path class="cls-10" d="m415.56,236.7c-.12.52-.81,1-1,1.47,4.14,3.87,9.49,6.2,15.15,6.6,5.58.32,11.13-.9,16.06-3.53,4.47-2.32,8.37-5.6,11.44-9.59,2.59-3.49,6.37-11.65,4.82-17.08-.03-.03-.07-.06-.11-.08-.72,7.37-3.99,14.25-9.24,19.46-2.61,2.61-5.65,4.73-9,6.28-4.68,2.16-9.87,3-15,2.41-4.88-.57-9.47-2.65-13.12-5.94h0Z"/>
  <path class="cls-10" d="m415.74,235.4v.35c3.59,3.39,8.17,5.52,13.07,6.09,4.96.56,9.98-.25,14.51-2.34,4.54-2.12,8.51-5.3,11.57-9.28,3.06-3.97,5.11-8.63,5.99-13.56.23-4.34-.58-8.68-2.36-12.65-1.79-3.97-4.49-7.45-7.9-10.16-2.94-2.02-6.26-3.39-9.77-4.04-3.5-.65-7.1-.56-10.57.26-6.97,1.77-13.06,6-17.17,11.9-3.76,5.32-5.92,12.46-6.1,20.1.77.33,1.52.73,2.22,1.19,1.61,1.06,2.98,2.46,4,4.1,1.59,2.38,2.46,5.18,2.5,8.04h0Z"/>
  <path class="cls-10" d="m402.68,221.42c.25-.04.51-.06.76-.06.43,0,.86.02,1.29.08-.35-8.52,2.42-16.87,7.78-23.49,2.74-3.31,6.11-6.03,9.92-8.01,3.81-1.98,7.98-3.17,12.25-3.5,3.99-.26,7.96.6,11.48,2.5-3.65-2.68-8.05-4.16-12.58-4.21-6.72.07-13.2,2.54-18.28,6.95-5.06,4.42-8.91,10.05-11.19,16.37-1.58,4.27-2.08,8.86-1.43,13.37h0Z"/>
  <path class="cls-10" d="m405.58,221.6l.62.18c.22-7.7,2.42-14.88,6.23-20.27,4.22-6.07,10.48-10.41,17.64-12.23,6.61-1.56,13.56-.52,19.42,2.91-4.07-3.52-9.36-5.3-14.73-4.93-4.17.32-8.23,1.48-11.94,3.41-3.71,1.93-7,4.58-9.66,7.8-5.27,6.52-7.97,14.75-7.58,23.13h0Z"/>
  <path class="cls-10" d="m446.29,194.1c2.22,1.67,3.87,3.99,4.72,6.64,1,2.86.68,6.28-2.51,7.51-5.55,2.14-12.53-1.44-15.46-6.2-2.39-3.89-2-8.88,2.88-10.48,3-.99,8,.78,10.37,2.53Z"/>
  <path class="cls-10" d="m464.89,222.69c-.66,4.05-1.91,7.98-3.72,11.66-4.31,8.21-13.28,14.14-25.92,17.17-.13,0-13.83,2.76-20.55,1.56l.55.39.1.07.48.35.34,1c7,1.24,19-1.44,19.5-1.56,9.31-2.23,15.7-5.73,20.08-9.45,2.97-2.39,5.4-5.38,7.12-8.78,1.64-3.56,2.84-7.32,3.58-11.17l-1.56-1.24Z"/>
  <path class="cls-10" d="m455.07,249.65c-20.88,13.13-35.2,8.11-38.44,6.66l.53,1.57c14,6.43,32.89-2.26,39.94-7.63,2.78-2.05,5.27-4.46,7.41-7.17,1.14-1.52,2.12-3.16,2.93-4.88,1.68-3.92,2.12-8.27,1.24-12.44l-.45-.36-.91.18c2.76,14.3-12.1,23.97-12.25,24.07Z"/>
  <path class="cls-10" d="m466.49,223.99c-.37,4.9-1.77,9.67-4.11,14-2.8,4.6-6.84,8.33-11.65,10.75-18.92,9.76-31.29,7.17-34.58,6.18l.72,2.14c4.87,1.19,17,2.49,34.71-6.66,2.2-1.13,4.25-2.51,6.14-4.1,2.48-2.09,4.59-4.58,6.26-7.36,2.29-4.21,3.74-8.83,4.25-13.59l-1.74-1.36Z"/>
  <path class="cls-10" d="m565.54,312.68c-3.34,2.73-7.18,7.55-5.05,14.4.96,2.94,2.8,5.51,5.27,7.37,4.6,3.7,8.2,8.47,10.5,13.9,0,0,7.88,3.61,20.42-7.77,0,0,3.68-12.38-11.81-26.73-2.18-2.29-5.06-3.79-8.18-4.29-1.97-.29-3.99-.17-5.91.37-1.92.54-3.71,1.47-5.24,2.75h0Z"/>
  <path class="cls-4" d="m577.14,345.73c-2.31-5.41-5.92-10.17-10.51-13.85-2.47-1.86-4.31-4.43-5.26-7.37-.67-2.01-.8-4.17-.37-6.25-1.31,2.76-1.49,5.93-.51,8.82.96,2.94,2.8,5.51,5.27,7.37,4.59,3.69,8.2,8.47,10.5,13.9,0,0,7.88,3.61,20.42-7.77.17-.68.28-1.38.33-2.09-12.22,10.73-19.87,7.24-19.87,7.24Z"/>
  <path class="cls-9" d="m571.16,328.12c4.76,2.65,15.31,7.91,20.38,5.59.69-.32,1.26-.85,1.63-1.51.37-.66.53-1.42.44-2.18-.4-3.58-2.5-12.15-13.24-16.71-3.21-1.39-6.83-1.52-10.13-.38-4,1.41-8.12,4.33-4.44,10.18,1.34,2.09,3.18,3.82,5.36,5.01h0Z"/>
  <path class="cls-10" d="m514.99,376.04c2.11-3.93,5.06-7.34,8.64-10,3.02-2.23,6.74-3.3,10.49-3.01,3.74.28,7.26,1.9,9.91,4.56,2.79,2.96,5.11,6.33,6.87,10,.27.53.56,1.06.85,1.59,1.24,2.31,4.62,10.59-5.31,18.5,0,0-10.55,8.2-18.26,3.72-.97-.57-1.78-1.36-2.39-2.31-1.47-2.21-3.13-5.65-7.35-8.4-.49-.31-.97-.64-1.42-1-4.01-3.48-4.53-9-2.03-13.65Z"/>
  <path class="cls-9" d="m495.33,338.9c1.59-.58,2.99-1.59,4.04-2.92,1.05-1.33,1.71-2.93,1.9-4.61,0,0,4.55-2.46,4.57-5.56,0,0,.36-5.05,3.17-5.35.56,2.13.71,4.34.45,6.52-.15.66-.21,1.33-.18,2,.07,1.08.32,2.28,1.19,1.07.2-.28.47-.5.78-.65.31-.15.65-.22.99-.2.39,0,.69.19.59.69l3.08,14.45-6.58-3.33-14-2.11Z"/>
  <path class="cls-4" d="m547.62,395.44s-10.55,8.19-18.27,3.71c-.96-.57-1.77-1.36-2.38-2.3-1.47-2.22-3.14-5.65-7.35-8.41-.5-.3-.97-.64-1.43-1-3.72-3.19-4.43-8.17-2.51-12.59-.26.42-.49.82-.69,1.2-2.5,4.65-2,10.17,2,13.61.45.36.93.69,1.42,1,4.22,2.75,5.88,6.19,7.35,8.4.62.94,1.45,1.72,2.42,2.29,7.71,4.48,18.26-3.72,18.26-3.72,2.53-1.88,4.54-4.37,5.84-7.24-1.26,1.93-2.84,3.64-4.66,5.05h0Z"/>
  <path class="cls-9" d="m521.6,375.19c.63-3.07,2.45-5.77,5.06-7.51,1.57-1.14,3.4-1.86,5.33-2.09,1.93-.23,3.88.05,5.67.8,3.46,1.46,7.58,4.56,10,11.13.55,1.48.77,3.07.64,4.65-.13,1.58-.6,3.1-1.39,4.48s-1.86,2.56-3.15,3.47c-1.29.91-2.77,1.53-4.32,1.81-2.31.35-4.67.23-6.94-.36-3.66-1.59-6.77-4.23-8.93-7.59-1.79-2.55-2.5-5.71-1.97-8.79Z"/>
  <path class="cls-10" d="m360.79,348.54l-.62,2.14s6.07-5.3,20.86,4.42l.7-3-9.86-10.75-11.45,5.38.37,1.81Z"/>
  <path class="cls-10" d="m515.33,344.07c-2.05-5.86-2.71-12.12-1.92-18.28.79-6.16,3.01-12.05,6.48-17.21l2.51.08c-3.52,5.5-5.75,11.73-6.52,18.22-.77,6.49-.06,13.06,2.07,19.23-.72-.86-1.61-1.56-2.62-2.04h0Z"/>
  <path class="cls-10" d="m363.75,385.58c-.76-.79-1.37-1.71-1.79-2.72-.1-.33-.18-.66-.25-1l-.29,1v.06l-.14-.06c-.46-.26-.84-.63-1.11-1.08-.18-.26-.38-.51-.59-.74-.63-.62-1.14-1.35-1.53-2.15.03.11.05.21.07.32-.28-.46-.54-.93-.76-1.37-.55-1.02-1.02-2.09-1.39-3.19-.35-1.25-.6-2.53-.75-3.82-.23-1.26-.32-2.55-.29-3.83.1-.96.27-1.92.53-2.85.44-1.83.92-3.7,1.45-5.52.27-1.12.67-2.21,1.19-3.24.25-.46.53-.91.83-1.34.63-.84,1.11-1.77,1.43-2.77.03-.11.06-.23.1-.34,1.18-.95,2.63-1.5,4.14-1.59,1.59-.09,3.19.09,4.73.52,3.99,1.09,7.8,2.72,11.35,4.85.42,4,5.4,6.77,8.58,7.56l.48.11c.5.03.99.18,1.43.42.44.24.82.58,1.12.99.5.92-.07,2.25-.8,3.1-.69.74-1.57,1.3-2.53,1.62-.97.32-2,.39-3,.21-.74-.12-1.46-.32-2.15-.6-.76-.31-1.54-.53-2.35-.65-2.14-.25-3.17.63-4.34,2.32-1.92,2.85-2.64,6.28-3.33,9.58-.87,4.16-1.68,8.1-4.71,11-.93.89-2.9,2.2-4.36,1.34-.3-.2-.54-.46-.73-.77-.18-.31-.29-.65-.32-1.01-.23-1.45-.2-2.92.08-4.36Z"/>
  <path class="cls-10" d="m468.8,368.52s-.51-14.13,15.68-25.59c0,0,12.8-8.72,26.67-1.49l4.19,2.63s-18.84-9.41-32.37,4.07c0,0-11.13,8.51-10.65,22.7l-3.52-2.32Z"/>
  <path class="cls-10" d="m422.59,304.8c-2.57-2-5.33-.54-6.52.32-.31.22-.59.47-.85.74-1.85,1.79-4.02,3.21-6.4,4.18-1.16.49-2.15,1.32-2.84,2.37-2.09,3.34-7.15,4.6-7.15,4.6,1.73,3.64-.09,7-1.81,9.11-1.59,1.94-2.79,4.17-3.51,6.57l-1.44,4.86c-2.95,11.12-9.69,15.29-9.69,15.29-17.74-12-21.58-4.31-21.58-4.31-5.1-5.12-2.14-12.69-.13-16.47.94-1.74,1.55-3.64,1.8-5.61l1.09-8.93,15.66-25.46c.34-.58.63-1.19.87-1.82,1.16-3,6.86-8.91,9.74-11.78.97-.96,2.08-1.77,3.29-2.41,1.45-.77,2.84-1.65,4.16-2.62,1.31-.95,2.44-2.13,3.33-3.49,2.85-4.22,6.98-7.43,11.77-9.16l10.21,44.02Z"/>
  <path class="cls-9" d="m418.52,287.35c.11,1.32-.07,2.65-.51,3.9-.44,1.25-1.14,2.39-2.05,3.36-.24.25-.52.47-.81.66-1.43,1-4,4.61-4,4.61-.74,1-3.54,2.43-5.06,3.15-.52.24-1.07.45-1.62.62-1.4.55-2.72,1.3-3.91,2.23-.86.65-1.53,1.53-1.93,2.54-.78,1.89-2.85-.09-2.85-.09,0,2.62-1.74,2.42-1.74,2.42.85,2.26-1,2.27-1,2.27,3.18,4.59,2.36,8.48,1.84,10-.17.49-.32.99-.44,1.5-.47,2-1.3,3.9-2.44,5.6-.78,1.13-1.77,2.1-2.91,2.86-1.82,1.25-2.12,2.25-2.05,2.86.15,1.1.17,2.22.06,3.32-1.64,13.12-11.44,9.8-11.44,9.8,2.32,1.18,4.55,2.52,6.69,4,0,0,6.74-4.17,9.69-15.29l1.44-4.86c.72-2.4,1.91-4.63,3.5-6.56,1.72-2.1,3.56-5.47,1.82-9.12,0,0,5.06-1.26,7.15-4.6.69-1.06,1.69-1.89,2.86-2.38,2.37-.98,4.53-2.39,6.38-4.17.26-.27.54-.52.85-.74,1.19-.86,4-2.36,6.52-.32l-4.04-17.57Z"/>
  <g class="cls-5">
    <path class="cls-4" d="m358.51,378.78s-.09.05-.14.06c-.06,0-.12-.02-.17-.06-.05-.04-.07-.1-.08-.16-.18-3.21-.03-6.42.45-9.6,0-.03,0-.07.02-.1.01-.03.04-.06.06-.08.03-.02.06-.04.09-.05.03,0,.07-.01.1,0s.07.02.1.04c.03.02.05.04.07.07.02.03.03.06.04.09,0,.03,0,.07,0,.1-.46,3.14-.61,6.32-.45,9.49,0,.04,0,.08-.01.11s-.04.07-.07.09h0Z"/>
  </g>
  <g class="cls-5">
    <path class="cls-4" d="m363.91,385.76c-.06.04-.13.06-.2.05-.03,0-.06-.02-.09-.03-.03-.02-.05-.04-.07-.07-.02-.03-.03-.06-.04-.09,0-.03,0-.06,0-.09,0-.12,2.15-12.24,5.16-17.83.03-.06.08-.1.15-.12.06-.02.13-.01.18.02.03.02.05.04.07.06.02.03.03.05.04.08,0,.03.01.06,0,.09,0,.03-.02.06-.03.09-3,5.52-5.09,17.56-5.11,17.69-.01.05-.04.1-.08.14h0Z"/>
  </g>
  <g class="cls-5">
    <path class="cls-4" d="m361.87,382.03s-.09.06-.15.06c-.06,0-.13-.02-.17-.07-.05-.04-.07-.11-.08-.17,0-.35-.11-8.62,1.81-12.8.03-.06.08-.1.14-.12.06-.02.12-.02.18,0,.06.03.1.08.12.14.02.06.02.13-.01.18-1.86,4.08-1.76,12.51-1.76,12.59,0,.04,0,.07-.02.1-.01.03-.04.06-.06.09Z"/>
  </g>
  <path class="cls-10" d="m362.86,317.11l3.16,1.13c2.39-10.04,7.72-19.13,15.32-26.11l-3-1.68s-15.12,11.76-15.48,26.66Z"/>
  <path class="cls-4" d="m362.86,317.11l3.16,1.13c2.39-10.04,7.72-19.13,15.32-26.11l-3-1.68s-15.12,11.76-15.48,26.66Z"/>
  <path class="cls-10" d="m412.38,260.79s12.22,3.16,16.81,21.62c0,0,3.62,14.88-6.6,22.4l1,2.72s12-11.17,8.16-27.82c0,0-5.56-18.46-17.87-19.8l-1.5.88Z"/>
  <path class="cls-10" d="m468.93,230.71c3.53,2.52,6.53,5.7,8.83,9.38,2.3,3.68,3.85,7.77,4.56,12.04h-1.86c-2.06-7.14-5.94-13.61-11.27-18.79l-.26-2.63Z"/>
  <path class="cls-10" d="m453.41,252.47s5.7,5.55,7.95,11.09l2.26-1.7s-4.1-7.54-7.69-10.76l-2.52,1.37Z"/>
  <path class="cls-10" d="m480.22,295.61c1.47,3.27,3.46,6.28,5.87,8.93.28.28.57.54.88.78,1.52,1.24,6.73,5.77,7.33,9.77,0,0,.09,1.2,2.23,4,.33.44.65.9.94,1.36,1.07,1.68,3.22,5.31,3.38,7.33l2.2-2s-2.22-6.6-4.41-9.1c0,0-.31-.33-.73-.88-.63-.85-1.17-1.77-1.61-2.74-1.46-3.02-3.42-5.76-5.8-8.12-.61-.61-1.25-1.18-1.91-1.74-.82-.69-3.69-3.41-6.14-9.57l-2.23,1.98Z"/>
  <g class="cls-12">
    <path class="cls-8" d="m557.76,342.78c-.24.92-.57,1.78-.87,2.66-.15.43-.29.87-.41,1.3-.06.21-.11.44-.13.66-.04.22,0,.45.11.65-.1-.08-.18-.17-.24-.29-.06-.11-.09-.23-.1-.35-.03-.24-.03-.49,0-.73.06-.48.17-.95.33-1.4.31-.9.75-1.74,1.31-2.5h0Z"/>
  </g>
  <g class="cls-12">
    <path class="cls-8" d="m559.68,350.47c.58-1.17,1.28-2.27,2.09-3.29.78-1.05,1.71-1.97,2.78-2.73-.43.49-.81,1-1.21,1.51l-1.19,1.52c-.82,1.01-1.6,2.03-2.47,2.99Z"/>
  </g>
  <g class="cls-12">
    <path class="cls-8" d="m562.68,353.69c.55-.08,1.1-.18,1.64-.32.53-.13,1.06-.29,1.57-.48,1.03-.4,2.01-.9,2.93-1.51-.35.45-.77.84-1.24,1.16-.47.33-.99.6-1.53.8-1.07.41-2.24.53-3.37.35h0Z"/>
  </g>
  <g class="cls-12">
    <path class="cls-8" d="m513.58,395.73c.24-.46.46-.85.68-1.25.22-.43.48-.83.77-1.22.03.51-.09,1.01-.35,1.45-.24.46-.62.82-1.1,1.02h0Z"/>
  </g>
  <g class="cls-12">
    <path class="cls-8" d="m520.06,399.34c.1-.3.29-.57.54-.77-.02-.1,0-.21.05-.3.05-.09.13-.17.22-.21.1-.04.2-.05.31-.03.1.02.2.08.26.16.07.08.11.18.11.29,0,.1-.02.21-.09.3-.06.09-.15.15-.25.18-.1.03-.21.03-.31,0-.24.21-.54.35-.85.4h0Z"/>
  </g>
  <g class="cls-12">
    <path class="cls-8" d="m523.29,404.72c.3-.05.6-.13.89-.23.28-.09.55-.19.82-.31.55-.23,1.07-.51,1.67-.76-.18.27-.4.51-.65.71-.25.2-.53.36-.83.49-.3.14-.61.22-.94.24-.33.02-.65-.03-.96-.14Z"/>
  </g>
  <g class="cls-12">
    <path class="cls-8" d="m543.33,432.94c.33.67.7,1.31,1.12,1.93.4.61.86,1.18,1.39,1.68.52.5,1.13.89,1.79,1.17.69.24,1.42.36,2.16.35-.75.21-1.53.21-2.28,0-.75-.23-1.43-.63-2-1.17-.56-.53-1.02-1.15-1.38-1.84-.37-.66-.64-1.38-.8-2.12h0Z"/>
  </g>
  <g class="cls-12">
    <path class="cls-8" d="m558.68,435.18c.49-.76.93-1.55,1.3-2.38.38-.78.57-1.64.57-2.51,0-.39-.16-.88-.21-1.33-.05-.46-.07-.92-.06-1.38,0-.92.14-1.83.4-2.71-.07.9-.07,1.8,0,2.7,0,.45.07.89.14,1.33s.18.84.24,1.36c0,.95-.24,1.88-.72,2.7-.45.81-1.01,1.56-1.66,2.22h0Z"/>
  </g>
  <g class="cls-12">
    <path class="cls-8" d="m588.09,394.95c-.1,1.37-.06,2.75.11,4.12.08.66.29,1.3.61,1.89.33.6.85,1.09,1.47,1.38-.36-.06-.7-.19-1.01-.39-.3-.2-.57-.45-.77-.75-.41-.6-.68-1.28-.77-2-.21-1.42-.09-2.88.36-4.25h0Z"/>
  </g>
  <g class="cls-12">
    <path class="cls-8" d="m604.02,394.64c.38-.58.66-1.21.84-1.87.18-.63.15-1.3-.08-1.91-.57-1.33-.65-2.82-.23-4.2-.04.69,0,1.39.11,2.07.12.68.31,1.35.57,2,.27.71.27,1.48,0,2.19-.26.66-.67,1.26-1.21,1.72h0Z"/>
  </g>
  <g class="cls-12">
    <path class="cls-8" d="m520.01,348.44c-.33-.41-.69-.79-1.07-1.16-.37-.37-.75-.72-1.15-1.06-.79-.68-1.61-1.33-2.46-1.94-.85-.61-1.72-1.19-2.6-1.76s-1.79-1.09-2.69-1.64c.49.19,1,.4,1.46.61.46.21.95.46,1.42.71.93.51,1.83,1.07,2.69,1.69.87.62,1.68,1.31,2.43,2.06.77.73,1.43,1.57,1.97,2.49h0Z"/>
  </g>
  <g class="cls-12">
    <path class="cls-8" d="m515.34,344.07c-.42-.47-.81-1-1.23-1.43-.42-.43-.73-1-1.09-1.54-.69-1.06-1.27-2.19-1.73-3.37-.47-1.18-.76-2.42-.87-3.69-.13-1.26.04-2.54.49-3.72-.16.6-.23,1.22-.23,1.84-.02.62.02,1.23.11,1.84.18,1.22.5,2.41.95,3.56.45,1.15.98,2.27,1.59,3.35l1,1.59c.36.52.68,1.03,1.01,1.57Z"/>
  </g>
  <g class="cls-12">
    <path class="cls-8" d="m507.26,332.28c.07.46.16.92.28,1.38.12.44.28.87.47,1.29.4.84.92,1.62,1.55,2.3-.44-.22-.83-.51-1.16-.87-.35-.36-.63-.78-.83-1.23-.42-.9-.53-1.91-.31-2.87Z"/>
  </g>
  <g class="cls-12">
    <path class="cls-8" d="m393.29,310.74c.62.34,1.21.74,1.75,1.2.55.45,1.07.94,1.55,1.47.49.52.93,1.08,1.33,1.67.41.58.78,1.2,1.11,1.83l-.44.17c-.29-1-.61-2-.94-3-.33-1-.72-2-1.14-3,.55.91,1.04,1.85,1.45,2.83.42.98.78,1.98,1.08,3l.66,2.18-1.09-2c-.66-1.23-1.43-2.39-2.32-3.46-.44-.54-.92-1.06-1.42-1.54-.5-.48-1.02-.93-1.58-1.35Z"/>
  </g>
  <g class="cls-12">
    <path class="cls-8" d="m366.06,344.74c-.9-1.05-1.56-2.28-1.93-3.61-.19-.67-.29-1.36-.3-2.06,0-.68.12-1.36.34-2-.06.66-.06,1.33,0,2,.07.66.2,1.31.38,1.95.4,1.28.9,2.53,1.51,3.72h0Z"/>
  </g>
  <g class="cls-12">
    <path class="cls-8" d="m378.88,348.78c.63.13,1.27.13,1.9,0,.31-.07.61-.16.9-.28.29-.13.56-.29.82-.47,1.01-.75,1.84-1.72,2.42-2.84.59-1.13,1.07-2.32,1.44-3.54.39-1.22.64-2.49,1-3.75-.06.65-.15,1.29-.22,1.94-.07.65-.26,1.27-.39,1.91l-.1.48-.15.47-.31.93c-.11.31-.23.61-.38.9-.13.3-.27.6-.43.89-.63,1.2-1.56,2.21-2.7,2.93-.56.35-1.2.57-1.85.64-.66.07-1.32,0-1.95-.21Z"/>
  </g>
  <g class="cls-12">
    <path class="cls-8" d="m501.18,224.08c.78.64,1.52,1.31,2.34,1.87.82.56,1.67,1.07,2.56,1.51.88.47,1.8.79,2.74,1.2.95.37,1.81.94,2.51,1.69-.39-.32-.81-.58-1.27-.78-.45-.21-.91-.4-1.38-.56-.96-.31-1.91-.68-2.82-1.12-.91-.46-1.77-1.01-2.56-1.65-.39-.31-.77-.65-1.12-1-.35-.39-.68-.77-1-1.16Z"/>
  </g>
  <g class="cls-12">
    <path class="cls-8" d="m506.22,221.83c.46.07.89.25,1.26.54.38.28.72.62,1,1,.28.36.52.75.71,1.16.09.21.17.42.25.63.08.21.13.44.17.66-.26-.37-.51-.74-.75-1.1-.24-.36-.48-.72-.75-1.06-.26-.35-.54-.68-.84-1-.31-.32-.66-.6-1.05-.83h0Z"/>
  </g>
  <g class="cls-12">
    <path class="cls-8" d="m511.16,218.95c-.04.46-.07.91-.06,1.37,0,.45.05.89.12,1.33.15.89.43,1.76.81,2.58-.35-.33-.63-.71-.84-1.14-.22-.43-.36-.89-.44-1.36-.17-.95-.02-1.92.41-2.78Z"/>
  </g>
  <g class="cls-12">
    <path class="cls-8" d="m491.81,331.48c4.57-.83,8.74-3.13,11.87-6.55,1.04-1.14,1.98-2.37,2.82-3.67-.37.68-.72,1.38-1.14,2-2.12,3.33-5.29,5.87-9,7.23-1.45.57-2.99.9-4.55.99h0Z"/>
  </g>
  <g class="cls-12">
    <path class="cls-8" d="m505.84,326.98c-.49.89-1.09,1.7-1.8,2.43-.71.74-1.5,1.39-2.36,1.94-.85.56-1.76,1.02-2.71,1.39-.94.37-1.93.63-2.93.76.95-.31,1.88-.68,2.78-1.1.9-.43,1.77-.91,2.6-1.45.83-.54,1.62-1.14,2.35-1.8.74-.67,1.43-1.4,2.07-2.17h0Z"/>
  </g>
  <g class="cls-12">
    <path class="cls-8" d="m509.54,307.08c.38.74.58,1.56.59,2.39.02.84-.11,1.67-.37,2.46-.25.79-.61,1.53-1.07,2.22-.22.34-.51.65-.76,1-.25.35-.58.58-.89.85.23-.35.48-.66.7-1,.22-.34.45-.67.64-1,.4-.69.73-1.42,1-2.17.24-.75.39-1.52.45-2.31.03-.82-.07-1.65-.29-2.44h0Z"/>
  </g>
  <g class="cls-12">
    <path class="cls-8" d="m515.25,308.67c-.07.88-.36,1.72-.86,2.45-.46.75-1.12,1.37-1.89,1.79.53-.7,1-1.34,1.49-2,.46-.72.88-1.47,1.26-2.24h0Z"/>
  </g>
  <path class="cls-9" d="m1111.11,155.49c0,16.05-4.76,31.74-13.68,45.08-8.91,13.34-21.58,23.74-36.41,29.89-14.83,6.14-31.14,7.75-46.88,4.62-15.74-3.13-30.2-10.86-41.55-22.21-11.34-11.35-19.07-25.81-22.2-41.55-3.13-15.74-1.53-32.05,4.61-46.88,6.15-14.83,16.55-27.5,29.89-36.41,13.34-8.92,29.03-13.67,45.08-13.67,21.52,0,42.16,8.55,57.37,23.77,15.22,15.22,23.77,35.85,23.77,57.38h0Z"/>
  <path class="cls-9" d="m1029.97,219.8c35.52,0,64.31-28.79,64.31-64.31s-28.79-64.31-64.31-64.31-64.31,28.79-64.31,64.31,28.79,64.31,64.31,64.31Z"/>
  <path class="cls-10" d="m1029.97,211.2c30.77,0,55.71-24.94,55.71-55.71s-24.94-55.71-55.71-55.71-55.71,24.94-55.71,55.71,24.94,55.71,55.71,55.71Z"/>
  <path class="cls-6" d="m1029.97,211.2c30.77,0,55.71-24.94,55.71-55.71s-24.94-55.71-55.71-55.71-55.71,24.94-55.71,55.71,24.94,55.71,55.71,55.71Z"/>
  <path class="cls-10" d="m1029.97,208.47c29.26,0,52.98-23.72,52.98-52.98s-23.72-52.98-52.98-52.98-52.98,23.72-52.98,52.98,23.72,52.98,52.98,52.98Z"/>
  <path class="cls-11" d="m1049.97,185.46c-8.85,0-17.55-2.23-25.32-6.46-7.77-4.24-14.36-10.35-19.16-17.78-4.8-7.43-7.67-15.95-8.33-24.77-.67-8.82.89-17.67,4.52-25.74-7,4.41-12.87,10.39-17.14,17.47-4.28,7.08-6.83,15.07-7.47,23.31-.63,8.25.67,16.53,3.81,24.18,3.14,7.65,8.02,14.46,14.26,19.89,6.25,5.43,13.67,9.32,21.69,11.36,8.01,2.04,16.39,2.18,24.47.4,8.08-1.78,15.63-5.42,22.05-10.64,6.41-5.22,11.52-11.86,14.91-19.41-8.46,5.36-18.27,8.2-28.29,8.19Z"/>
  <path class="cls-11" d="m1039.97,197.46c-9.62,0-19.07-2.64-27.31-7.6-8.24-4.97-14.98-12.09-19.48-20.59-4.51-8.51-6.61-18.08-6.09-27.69.53-9.61,3.66-18.9,9.06-26.86-5.86,4.84-10.62,10.88-13.95,17.71-3.32,6.84-5.14,14.31-5.32,21.91-.18,7.6,1.27,15.15,4.26,22.14,2.99,6.99,7.45,13.25,13.08,18.36s12.29,8.95,19.53,11.27c7.24,2.31,14.9,3.04,22.44,2.13,7.55-.91,14.81-3.43,21.3-7.39,6.49-3.96,12.05-9.27,16.3-15.57-9.5,7.9-21.46,12.22-33.82,12.2h0Z"/>
  <path class="cls-11" d="m1053.06,113.47s-20-7.47-17.71,12.21c0,0,.55,12.26,15.15,13.56,2.35.26,4.71-.17,6.82-1.24,2.1-1.07,3.85-2.72,5.03-4.76,1.62-3,2.13-7-1.16-11.83,0-.06-4.75-6.82-8.13-7.94Z"/>
  <path class="cls-11" d="m1069.18,146.35c2.49,0,4.5-1.57,4.5-3.5s-2.01-3.5-4.5-3.5-4.5,1.57-4.5,3.5,2.01,3.5,4.5,3.5Z"/>
  <path class="cls-11" d="m1053.68,148.35c1.66,0,3-1.04,3-2.33s-1.34-2.33-3-2.33-3,1.04-3,2.33,1.34,2.33,3,2.33Z"/>
  <path class="cls-10" d="m1365.98,798.2H70.1c-.13.02-.26.02-.39,0-.13-.04-.24-.1-.35-.18-.1-.08-.18-.19-.24-.31-.06-.11-.08-.24-.08-.37s.03-.26.08-.38c.06-.12.14-.22.24-.31.1-.08.22-.14.35-.18.13-.03.26-.03.39-.01h1295.88c.13-.02.26-.02.39.01.12.04.24.1.34.18.1.09.18.19.24.31.05.12.08.25.08.38s-.03.26-.08.37c-.06.12-.14.23-.24.31-.1.08-.22.14-.34.18-.13.03-.26.03-.39,0h0Z"/>
  <path class="cls-10" d="m1073.05,321.63l-11.83-8.4,6.2-8.73,11.83,8.39-6.2,8.74Zm-81.37,32.14l-3-2.28,3-16.68c4.77,3.81,9.78,7.31,15,10.48l-14.15,8.35-.85.13Zm7.09-98l11.83,8.4-6.2,8.73-11.83-8.39,6.2-8.74Zm-119.36-31.42l9.93-14,.91.64-9.93,14,46.19,32.78,9.92-14,.91.64-9.93,14,46.19,32.78,16.88-23.79,11.83,8.4-7.11,10h-.4l3.27,11.41c-9.2-1.56-17.73.31-23,7.71-3.92,5.52,2.79,17.61,15.56,29l-3,16.69-1.73,1-.6.84-8.34,11.9c-1.88,2.64,4.93,7.48,6.81,4.83l8.34-11.76.6-.84.86-2.19,14.11-8.34c15.06,8.34,28.94,11,32.87,5.45,5.25-7.4,4.2-16.07-.3-24.24l11.84-.68-.11-.39,7.11-10,11.83,8.4-16.84,23.76,46.19,32.79,9.93-14,.91.64-9.93,14,46.18,32.78,9.93-14,.91.65-9.93,14,46.19,32.78,43.51-61.3-46.19-32.78-9.93,14-.91-.65,9.93-14-46.19-32.78-9.93,14-.91-.65,9.93-14-46.19-32.79-16.25,22.91-11.83-8.4,5.43-7.65-2-7-1.42.37,8.34-11.13,13.94-2.24.09-.12c1.84-2.59,1.83-6,0-10.15l.89-.33c.88-.32,1.64-.9,2.19-1.66.55-.76.87-1.66.9-2.6.11-7.77-11.8-19-22-26.29-10.26-7.29-24.81-14.83-32.12-12.17-.88.34-1.63.94-2.16,1.71-.54.77-.83,1.69-.84,2.63v1c-4.23-.34-7.63.61-9.58,3.35l-.08.12,1.06,15.75-4.3,7.84-9.65.68-5.42,7.65-11.84-8.4,16.26-22.9-46.19-32.78-9.92,14-.91-.65,9.93-14-46.19-32.78-9.93,14-.91-.64,9.93-14-46.26-32.81-43.51,61.3,46.18,32.7Z"/>
  <path class="cls-10" d="m1073.05,321.63l-11.83-8.4,6.2-8.73,11.83,8.39-6.2,8.74Zm-81.37,32.14l-3-2.28,3-16.68c4.77,3.81,9.78,7.31,15,10.48l-14.15,8.35-.85.13Zm7.09-98l11.83,8.4-6.2,8.73-11.83-8.39,6.2-8.74Zm-119.36-31.42l9.93-14,.91.64-9.93,14,46.19,32.78,9.92-14,.91.64-9.93,14,46.19,32.78,16.88-23.79,11.83,8.4-7.11,10h-.4l3.27,11.41c-9.2-1.56-17.73.31-23,7.71-3.92,5.52,2.79,17.61,15.56,29l-3,16.69-1.73,1-.6.84-8.34,11.9c-1.88,2.64,4.93,7.48,6.81,4.83l8.34-11.76.6-.84.86-2.19,14.11-8.34c15.06,8.34,28.94,11,32.87,5.45,5.25-7.4,4.2-16.07-.3-24.24l11.84-.68-.11-.39,7.11-10,11.83,8.4-16.84,23.76,46.19,32.79,9.93-14,.91.64-9.93,14,46.18,32.78,9.93-14,.91.65-9.93,14,46.19,32.78,43.51-61.3-46.19-32.78-9.93,14-.91-.65,9.93-14-46.19-32.78-9.93,14-.91-.65,9.93-14-46.19-32.79-16.25,22.91-11.83-8.4,5.43-7.65-2-7-1.42.37,8.34-11.13,13.94-2.24.09-.12c1.84-2.59,1.83-6,0-10.15l.89-.33c.88-.32,1.64-.9,2.19-1.66.55-.76.87-1.66.9-2.6.11-7.77-11.8-19-22-26.29-10.26-7.29-24.81-14.83-32.12-12.17-.88.34-1.63.94-2.16,1.71-.54.77-.83,1.69-.84,2.63v1c-4.23-.34-7.63.61-9.58,3.35l-.08.12,1.06,15.75-4.3,7.84-9.65.68-5.42,7.65-11.84-8.4,16.26-22.9-46.19-32.78-9.92,14-.91-.65,9.93-14-46.19-32.78-9.93,14-.91-.64,9.93-14-46.26-32.81-43.51,61.3,46.18,32.7Z"/>
  <path class="cls-10" d="m1030.84,309.54c-1.43-2.31-3.33-4.3-5.56-5.86-4.39-3.12-10.43-4.94-14.5-2.34l.42.21c7.94,3.58,15.1,8.67,21.08,15,.45-2.43-.07-4.95-1.44-7.01h0Z"/>
  <path class="cls-10" d="m1016.22,316.12c18,12.25,29.35,28.3,24.74,35.08-4.61,6.78-23.12,2.42-41.43-10.53-17.8-12.58-28.91-27.69-24.3-34.47,4.61-6.78,22.96-2.34,40.99,9.92Z"/>
  <path class="cls-7" d="m991.77,334.69c2.29,1.94,4.77,3.86,7.38,5.72,1.47-9.77,6.86-19.86,16.24-24.83-17.76-11.83-35.62-16-40.16-9.37-.75,1.17-1.1,2.55-1,3.93.14,1.51.48,3,1,4.42,2.18,5.6,7.79,12.53,15.6,19.3l3.25-19.81c.01-.08.04-.17.08-.24.04-.07.1-.14.17-.19.12-.07.26-.1.4-.07.14.02.26.09.34.2.05.07.09.15.1.23.02.08.01.17-.01.25l-3.39,20.46Z"/>
  <path class="cls-9" d="m996.15,286.84l21.12-1.22,27.7,19.66,5.82,20.35-11.08.63c-1.61-2.69-3.46-5.23-5.53-7.58,1.61-2.57,1.66-5.65.13-8.93-1.72-3.37-4.27-6.25-7.4-8.37-6.11-4.34-14.48-6.46-18.72-1.15-2.91-1.18-5.92-2.09-9-2.71l-3-10.68h-.04Z"/>
  <path class="cls-9" d="m1025.88,302.83c4.89,3.47,8.93,9.29,7.22,14.63.11.14.24.27.36.42,3-5.16-1.52-11.65-7.15-15.65l-.43.6h0Z"/>
  <path class="cls-10" d="m988.51,352.02c-.11.02-.23.02-.35,0-.14-.03-.28-.08-.41-.16-.12-.08-.23-.18-.31-.3-.09-.12-.15-.26-.18-.4-.03-.14-.03-.29-.01-.44l6.65-37.5c.02-.15.07-.3.14-.43.08-.13.18-.25.3-.34.12-.09.27-.16.41-.19.15-.04.31-.04.46-.01.15.03.3.09.43.17.12.08.23.19.32.32.08.13.14.27.16.43.03.15.02.31-.02.46l-6.65,37.5c-.04.23-.15.44-.32.6-.17.16-.39.27-.62.3h0Z"/>
  <path class="cls-10" d="m992.4,355.42c-.22.03-.45,0-.65-.1s-.37-.26-.48-.46c-.14-.26-.18-.56-.11-.84.08-.28.27-.53.52-.68l33.25-18.56c.13-.09.27-.14.43-.17.15-.03.3-.02.45.02.15.04.29.1.42.2.12.09.22.21.3.35.07.13.12.28.13.44.02.15,0,.31-.05.45-.04.15-.12.28-.22.4-.1.12-.23.21-.37.27l-33.23,18.61c-.12.05-.26.07-.39.08h0Z"/>
  <path class="cls-9" d="m1030.84,309.54c-1.44-2.31-3.33-4.3-5.56-5.86l-3,4.29c3.6,2.56,6.94,5.45,10,8.63.46-2.45-.05-4.98-1.44-7.06h0Z"/>
  <path class="cls-9" d="m1022.52,320.44c12.87,10.81,22.42,23.26,19.2,29.76,7.7-15.55-5.62-32.39-19.61-42.33,0,0,3.83,6.27.41,12.57h0Z"/>
  <path class="cls-9" d="m1026.6,301.83l22.56,16,2.19,8.32-11.35.75s-2.6-4.51-3.33-5.36c-.73-.85-3.19-3.86-3.19-3.86l1.39-1c.11-1.68-.06-3.37-.51-5-1.14-2.56-2.68-4.92-4.57-7-1.23-1.24-3.19-2.87-3.19-2.87v.02Z"/>
  <path class="cls-10" d="m976.51,364.83l9.24-13,7.21,5.12-9.23,13c-1.84,2.59-9.06-2.53-7.22-5.12Z"/>
  <path class="cls-9" d="m985.68,351.9l-9.23,13c-.65,1,0,2.38,1.2,3.54l10.49-14.79-2.46-1.75Z"/>
  <path class="cls-9" d="m1090.19,257.66c1.28,1.74,2.82,4.61,3.79,6.15l-.08-.2.89-.33c.88-.32,1.64-.9,2.19-1.66.55-.76.87-1.66.9-2.6.11-7.76-11.77-19-22-26.26l-4.9,6.77c8.15,5.82,14.89,12.24,19.21,18.13Z"/>
  <path class="cls-10" d="m986.92,349.56l7.71,5.47-1.67,2.36-7.72-5.47,1.68-2.36Z"/>
  <path class="cls-9" d="m1072.4,287.12l.13-.14-.16.04.03.1Z"/>
  <path class="cls-9" d="m1060.85,253.79l-6.1,8.6,14,10,3.42,14,7.29-9.74c-.95-6.63-9.52-16.41-18.61-22.86Z"/>
  <path class="cls-10" d="m1181.14,437.28l11.86,8.42,2.07-.35,8.42-11.86-.4-2.31-11.57-8.21-2.55.43-8.21,11.57.38,2.31h0Zm-15.11-10.73l11.86,8.42,2.3-.4,8.22-11.57-.44-2.55-11.57-8.21-2.54.43-8.18,11.57.39,2.31h-.04Zm-6.9-24.68h-.15l-8.41,11.86.35,2.07,11.85,8.41,2.31-.39,8.22-11.57-.44-2.55-10.7-7.6c-.31.31-.72.5-1.16.53-.44.03-.88-.09-1.24-.34l-.63-.45v.03Zm-25.08,2l11.85,8.41,2.07-.35,8.42-11.86v-.14l-.77-.55c-.35-.26-.61-.63-.72-1.05s-.07-.87.12-1.27l-10.57-7.51-2.56.43-8.21,11.56.39,2.32h-.02Zm-15.12-10.73l11.86,8.42,2.31-.4,8.21-11.58-.43-2.54-11.57-8.22-2.55.44-8.21,11.57.38,2.31Zm-6.9-24.69h-.14l-8.42,11.9.35,2.07,11.85,8.42,2.32-.4,8.21-11.57-.44-2.55-10.58-7.51c-.31.31-.73.49-1.17.53-.43.03-.87-.09-1.23-.35l-.75-.53h0Zm-25.07,2l11.85,8.41,2.07-.35,8.42-11.86v-.15l-.64-.45c-.36-.26-.61-.63-.72-1.05-.11-.43-.07-.88.11-1.28l-10.7-7.59-2.54.43-8.22,11.58.4,2.31h-.03Zm-15.12-10.73l11.86,8.42,2.31-.4,8.21-11.57-.43-2.55-11.57-8.27-2.55.43-8.21,11.57.38,2.31v.06Zm-15.16-10.75l11.9,8.38,2.31-.4,8.21-11.57-.43-2.55-11.57-8.21-2.31.38-8.42,11.86.35,2.07-.04.04Zm15.08-23.81l-4.7,6.62.4,2.31,11.57,8.21,2.55-.43,8.21-11.57-.43-2.55-11.57-8.21-2.31.38-1.63,2.3-2.09,2.94Zm10.82,19.66l11.57,8.21,2.55-.43,8.21-11.57-.43-2.55-11.57-8.21-2.55.43-8.21,11.57.43,2.55Zm28.81,18.58h.18l8.42-11.86v-.16l-.64-.45c-.36-.25-.61-.62-.72-1.04-.12-.42-.07-.87.11-1.27l-10.7-7.6-2.54.44-8.22,11.57.44,2.54,10.69,7.6c.32-.3.73-.48,1.16-.51.43-.03.86.09,1.22.33l.63.44-.03-.03Zm11.39-10.05h-.16l-8.42,11.86v.18l.72.51c.36.25.62.62.73,1.04.12.42.08.87-.1,1.27l10.59,7.51,2.54-.37,8.22-11.57-.45-2.55-10.58-7.51c-.31.3-.73.48-1.16.52-.44.03-.87-.09-1.23-.34l-.74-.52.04-.03Zm6.9,24.9l11.57,8.21,2.55-.43,8.21-11.57-.43-2.55-11.57-8.21-2.55.43-8.21,11.57.43,2.55Zm28.81,18.58h.18l8.42-11.86v-.16l-.75-.54c-.36-.25-.61-.62-.72-1.04-.12-.42-.07-.87.11-1.27l-10.57-7.5-2.56.42-8.21,11.57.44,2.56,10.57,7.5c.32-.3.73-.48,1.16-.51.43-.03.86.09,1.22.33l.74.53-.03-.03Zm11.36-10.08h-.17l-8.41,11.86v.18l.6.43c.36.25.62.62.73,1.04.12.42.08.87-.1,1.27l10.71,7.6,2.54-.43,8.22-11.57-.43-2.55-10.71-7.6c-.32.3-.73.49-1.17.52-.43.03-.87-.09-1.23-.34l-.61-.44.03.03Zm6.92,24.92l11.58,8.21,2.54-.43,8.22-11.57-.43-2.53-11.57-8.21-2.54.43-8.22,11.58.43,2.54v-.02Zm15.12,10.73l11.57,8.22,2.31-.39,8.42-11.86-.4-2.31-11.57-8.21-2.55.43-8.21,11.58.43,2.54Zm10.79-15.11l11.57,8.22,2.31-.4,8.42-11.85-.4-2.31-11.57-8.22-2.55.44-8.22,11.58.44,2.54h0Zm-15.12-10.73l11.57,8.22,2.55-.43,8.22-11.58-.44-2.54-11.57-8.22-2.54.44-8.22,11.58.43,2.54h0Zm-6.91-24.93h-.18l-8.41,11.85v.17l.62.43c.36.26.61.63.73,1.05.11.43.07.88-.12,1.28l10.71,7.6,2.55-.43,8.22-11.58-.43-2.55-10.71-7.6c-.31.3-.73.49-1.16.52-.44.03-.87-.09-1.23-.35l-.61-.43.02.04Zm-25.07,2.24l10.57,7.5c.32-.31.73-.49,1.17-.53.44-.03.87.09,1.23.34l.75.53h.16l8.41-11.85v-.19l-.74-.52c-.35-.25-.61-.62-.72-1.04-.12-.42-.08-.87.1-1.27l-10.57-7.5-2.56.42-8.27,11.59.44,2.56.03-.04Zm-15.12-10.73l11.58,8.21,2.54-.43,8.22-11.58-.43-2.55-11.57-8.21-2.55.43-8.22,11.58.43,2.55Zm-6.9-24.93h-.19l-8.41,11.85v.16l.73.52c.36.26.62.63.73,1.05.11.43.07.88-.11,1.28l10.58,7.51,2.56-.42,8.22-11.59-.45-2.55-10.54-7.47c-.31.3-.73.49-1.16.52-.44.03-.87-.09-1.23-.35l-.72-.51h-.01Zm-11.36,10.07h.17l8.41-11.85v-.19l-.63-.45c-.35-.25-.61-.62-.72-1.04-.12-.42-.08-.86.1-1.26l-10.69-7.59-2.55.43-8.22,11.58.43,2.55,10.7,7.59c.31-.31.72-.49,1.16-.53.44-.04.87.08,1.23.33l.63.45-.02-.02Zm-28.83-18.57l11.57,8.22,2.55-.44,8.22-11.58-.43-2.55-11.6-8.21-2.55.43-8.22,11.59.43,2.54h.03Zm-13.25-16.23l-2.26,3.19.39,2.31,11.57,8.22,2.55-.44,8.22-11.58-.43-2.55-11.57-8.21-2.32.4-4.07,5.73-2.08,2.93h0Zm8.86-9.62l11.58,8.22,2.54-.43,8.22-11.58-.39-2.31-11.89-8.41-2.07.35-8.41,11.85.39,2.31h.03Zm15.12,10.73l11.57,8.22,2.55-.43,8.21-11.58-.38-2.31-11.86-8.41-2.31.4-8.2,11.57.43,2.54h-.01Zm28.85,18.57h.15l8.41-11.85-.35-2.07-11.85-8.41-2.32.39-8.21,11.57.43,2.55,10.7,7.59c.31-.31.73-.5,1.16-.54.44-.04.88.08,1.24.34l.64.45v-.02Zm2.76,2l.75.53c.36.26.62.63.73,1.06.11.43.07.88-.12,1.28l10.58,7.51,2.56-.42,8.21-11.57-.39-2.32-11.85-8.41-2.08.35-8.42,11.81v.14l.03.04Zm15.49,12.9l11.57,8.21,2.54-.43,8.22-11.57-.39-2.31-11.86-8.42-2.3.4-8.22,11.57.44,2.55h0Zm15.11,10.73l10.58,7.5c.31-.31.72-.5,1.16-.54.44-.04.87.08,1.23.34l.77.55h.14l8.41-11.85-.35-2.07-11.85-8.41-2.32.4-8.21,11.57.44,2.55v-.04Zm16.5,9.8l.63.45c.36.26.62.63.73,1.06.11.43.07.88-.12,1.28l10.7,7.6,2.55-.44,8.21-11.57-.39-2.32-11.85-8.41-2.07.36-8.41,11.85v.14h.02Zm15.48,12.9l11.57,8.21,2.55-.43,8.21-11.57-.38-2.32-11.86-8.41-2.31.4-8.21,11.57.43,2.55Zm14.68,8.18l8.22-11.57,2.3-.4,11.86,8.42.36,2.07-8.42,11.85-2.31.39-11.57-8.21-.44-2.55h0Z"/>
  <path class="cls-10" d="m960.29,280.53l11.86,8.42,2.07-.35,8.42-11.86-.4-2.31-11.56-8.21-2.55.43-8.21,11.57.38,2.31h-.01Zm-15.12-10.73l11.86,8.42,2.31-.4,8.22-11.58-.44-2.54-11.57-8.21-2.55.43-8.21,11.57.38,2.31h0Zm-6.89-24.68h-.15l-8.45,11.88.35,2.08,11.85,8.41,2.31-.4,8.22-11.57-.44-2.55-10.7-7.59c-.32.31-.73.49-1.17.53-.44.03-.87-.09-1.23-.35l-.63-.44h.04Zm-25.08,2l11.85,8.41,2.07-.35,8.42-11.86v-.14l-.77-.54c-.36-.26-.61-.63-.72-1.06s-.07-.88.12-1.27l-10.57-7.5-2.56.42-8.21,11.58.39,2.31h-.02Zm-15.12-10.77l11.86,8.42,2.31-.4,8.21-11.57-.43-2.55-11.57-8.21-2.55.43-8.23,11.59.38,2.31.02-.02Zm-6.9-24.68h-.14l-8.42,11.86.35,2.07,11.85,8.41,2.32-.39,8.21-11.57-.44-2.56-10.58-7.51c-.31.31-.73.5-1.17.53-.44.04-.88-.09-1.23-.34l-.75-.53v.03Zm-25.07,2l11.85,8.41,2.07-.35,8.41-11.86v-.15l-.64-.46c-.36-.25-.61-.63-.73-1.05-.11-.42-.07-.87.12-1.27l-10.72-7.59-2.54.43-8.25,11.57.4,2.32h.03Zm-15.12-10.72l11.86,8.4,2.31-.41,8.21-11.59-.43-2.54-11.58-8.22-2.54.44-8.22,11.57.39,2.31v.04Zm-15.12-10.73l11.86,8.42,2.31-.41,8.21-11.57-.43-2.54-11.57-8.22-2.31.39-8.42,11.86.35,2.07h0Zm15.08-23.81l-4.7,6.62.43,2.32,11.57,8.21,2.55-.43,8.21-11.57-.43-2.55-11.57-8.22-2.31.39-1.63,2.3-2.09,2.94h-.03Zm10.82,19.66l11.57,8.21,2.55-.43,8.21-11.57-.43-2.55-11.57-8.21-2.55.43-8.22,11.57.44,2.55h0Zm28.81,18.58h.18l8.41-11.86v-.17l-.64-.44c-.36-.25-.61-.63-.73-1.05-.11-.42-.07-.87.12-1.27l-10.7-7.59-2.54.43-8.22,11.57.44,2.55,10.67,7.53c.32-.3.73-.48,1.16-.51.43-.03.86.09,1.22.34l.63.44v.03Zm11.35-10.08h-.16l-8.42,11.86v.18l.72.51c.36.25.61.62.73,1.04.11.42.08.87-.1,1.27l10.58,7.51,2.56-.42,8.21-11.57-.44-2.56-10.58-7.51c-.32.3-.73.49-1.17.52-.44.03-.87-.09-1.23-.34l-.73-.52.03.03Zm6.93,24.92l11.57,8.21,2.55-.43,8.21-11.57-.43-2.55-11.57-8.21-2.51.41-8.21,11.57.43,2.55-.04.02Zm28.82,18.59h.18l8.42-11.86v-.16l-.75-.53c-.36-.25-.61-.63-.73-1.05-.11-.42-.07-.87.12-1.27l-10.57-7.5-2.56.43-8.21,11.57.44,2.55,10.57,7.51c.32-.3.72-.48,1.16-.51.43-.03.86.08,1.22.33l.74.53-.03-.04Zm11.36-10.08h-.17l-8.41,11.86v.18l.6.43c.36.25.61.62.73,1.04.11.42.08.87-.1,1.27l10.71,7.6,2.54-.43,8.22-11.58-.43-2.54-10.71-7.6c-.32.3-.73.48-1.17.52-.44.03-.87-.09-1.23-.34l-.61-.44.03.03Zm6.92,24.92l11.58,8.21,2.54-.43,8.22-11.57-.44-2.55-11.58-8.23-2.54.43-8.22,11.57.43,2.55v.02Zm15.12,10.73l11.57,8.21,2.31-.38,8.42-11.86-.4-2.31-11.57-8.21-2.55.43-8.18,11.57.43,2.55h-.03Zm10.72-15.11l11.58,8.21,2.3-.4,8.41-11.85-.39-2.32-11.57-8.21-2.55.43-8.22,11.58.43,2.55h.01Zm-15.12-10.73l11.57,8.21,2.55-.43,8.22-11.58-.44-2.55-11.57-8.21-2.54.43-8.22,11.58.43,2.55Zm-6.91-24.93h-.18l-8.41,11.85v.16l.62.44c.36.26.61.63.72,1.05.12.42.07.88-.11,1.27l10.71,7.6,2.55-.43,8.22-11.58-.43-2.55-10.71-7.6c-.32.3-.73.48-1.16.51-.44.03-.87-.09-1.23-.34l-.61-.43.02.04Zm-25.09,2.23l10.57,7.51c.31-.31.73-.5,1.16-.54.44-.04.88.08,1.24.34l.75.53h.16l8.41-11.85v-.19l-.74-.53c-.35-.25-.61-.62-.72-1.04-.12-.42-.08-.87.1-1.26l-10.57-7.51-2.56.43-8.22,11.58.44,2.55-.02-.02Zm-15.1-10.76l11.58,8.22,2.54-.44,8.22-11.58-.43-2.54-11.57-8.22-2.55.44-8.22,11.58.43,2.54Zm-6.9-24.9h-.19l-8.41,11.9v.17l.73.52c.36.26.61.63.73,1.05.11.42.07.88-.11,1.28l10.58,7.51,2.55-.43,8.22-11.58-.44-2.55-10.58-7.51c-.32.3-.73.48-1.17.51-.43.03-.87-.09-1.22-.35l-.72-.51h.03Zm-11.36,10.08h.17l8.41-11.85v-.19l-.62-.44c-.36-.25-.61-.62-.72-1.04-.12-.42-.08-.87.1-1.27l-10.7-7.59-2.54.43-8.22,11.58.43,2.55,10.7,7.59c.31-.31.72-.49,1.16-.53.44-.04.87.09,1.23.34l.63.45-.03-.03Zm-28.83-18.57l11.57,8.21,2.55-.43,8.22-11.58-.43-2.55-11.57-8.21-2.55.43-8.22,11.58.43,2.55Zm-13.25-16.23l-2.26,3.18.39,2.32,11.57,8.21,2.55-.43,8.19-11.58-.43-2.55-11.57-8.21-2.32.39-4.07,5.74-2.08,2.93h.03Zm8.86-9.62l11.58,8.24,2.54-.43,8.21-11.57-.38-2.31-11.86-8.42-2.07.35-8.44,11.82.39,2.32h.03Zm15.12,10.73l11.57,8.21,2.55-.43,8.21-11.57-.38-2.31-11.86-8.39-2.31.4-8.21,11.57.43,2.55v-.03Zm28.85,18.57h.15l8.41-11.85-.35-2.07-11.85-8.41-2.32.39-8.21,11.58.43,2.54,10.7,7.6c.31-.31.72-.51,1.16-.54.44-.04.88.08,1.24.33l.64.46v-.03Zm2.76,2l.75.53c.36.26.62.63.73,1.06.11.43.07.88-.12,1.28l10.58,7.51,2.55-.43,8.22-11.57-.4-2.32-11.85-8.41-2.07.35-8.41,11.86v.14h.02Zm15.48,12.9l11.58,8.21,2.54-.43,8.22-11.58-.39-2.31-11.86-8.41-2.31.4-8.21,11.57.43,2.55h0Zm15.12,10.73l10.57,7.5c.31-.31.72-.5,1.16-.54.44-.04.88.08,1.24.34l.77.54h.14l8.41-11.85-.35-2.07-11.85-8.41-2.32.39-8.21,11.57.44,2.56v-.03Zm16.5,9.8l.63.44c.36.26.62.63.73,1.06.11.43.06.88-.13,1.28l10.71,7.6,2.55-.43,8.21-11.57-.39-2.32-11.85-8.41-2.07.35-8.41,11.85v.15h.02Zm15.48,12.89l11.57,8.21,2.55-.43,8.21-11.57-.38-2.31-11.86-8.42-2.31.4-8.21,11.57.43,2.55h0Zm14.68,8.19l8.22-11.58,2.3-.4,11.86,8.42.36,2.07-8.42,11.85-2.31.39-11.57-8.21-.44-2.54h0Z"/>
  <path class="cls-10" d="m1031.2,243.26l-.14,2.32c4.72-6.41,19-.7,30.37,7.36,6.14,4.36,11.29,9.24,14.49,13.74,3.71,5.21,4.56,9.55,2.45,12.56l2.45-1c3.86-6.31-6.14-18.14-18.24-26.72-12.1-8.58-26.86-14.24-31.38-8.23v-.03Zm8.48-5.92c-3.86-.35-6.65.5-8.29,2.56l-.13,2.22c5.55-5.49,20.06.51,31.72,8.78,6.58,4.68,12.12,9.91,15.56,14.74,3.44,4.83,4.62,9.05,3.28,12.12l2-.84c1.33-2.21,1.19-5.08-.41-8.54-5.78-12.63-29.89-29.73-43.72-31v-.04Zm47.1,38.33c4.25-7.25-6.77-20.45-20.19-30-13.42-9.55-29.59-15.6-35-9.1l-.13,2.22c1.82-1.77,4.61-2.5,8.29-2.15,7.15.68,16.73,5.27,25.26,11.32,8.53,6.05,16,13.59,19,20.1,1.52,3.32,1.77,6.14.76,8.42l2-.83v.02Zm3-1.24c4.47-7.74-7.07-21.63-21.15-31.62-14.08-9.99-31-16.29-36.81-9.55l-.13,2.25c3.19-3,8.8-2.92,15.22-.89,6.42,2.03,13.67,5.95,20.11,10.52,12.85,9.12,24.33,22.09,20.77,30.11l2-.82h-.01Zm-19.41-34.09c15.11,10.72,27.72,25.35,22.75,32.7l-2.38,1c1.63-3.68.41-8.62-3.62-14.4-4.03-5.78-10.42-11.88-18.13-17.35-13.48-9.57-30.35-16.43-37.14-10l.16-2.58c5.29-7.11,23.26,0,38.36,10.68v-.05Z"/>
  <path class="cls-9" d="m1021.55,258.55l3.06-4.32,3.07-.19-3.01,4.23-3.12.28Z"/>
  <path class="cls-9" d="m1025.57,258.2l2.98-4.19,2.62-.16-2.91,4.11-2.69.24Z"/>
  <path class="cls-9" d="m1010.66,272.21l5.09-7.17,5.27-.43,4.03-5.67,3.59-.33,3.41-4.81,7.5-.43-22.15,31.2-7.5.44,3.91-5.51-3.59.33,5.74-8.09-5.3.47Z"/>
  <path class="cls-9" d="m1015.36,264.38l-6.13,8.65,5.32-.47-5.23,7.36-4.04.37-3.69,5.21-5.08.29,6.64-9.36,2.09-2.94,6.2-8.73,2.08-2.93,5.14-7.25,5.08-.3-3.62,5.11,4.04-.37-3.51,4.93-5.29.43Z"/>
  <path class="cls-9" d="m1005.8,285.25l-3.33.19,3.19-4.5,3.14-.28-3.18,4.47.18.12Z"/>
  <path class="cls-9" d="m1006.4,285.22l3.29-4.65,2.69-.24-3.36,4.74-2.62.15Z"/>
  <path class="cls-4" d="m1067.4,286.12l3.02-4.26.74,2.57-.03-.02-3.08,4.33-.65-2.62Z"/>
  <path class="cls-4" d="m1068.28,289.61l3.1-4.38.85,2.94-3.19,4.49-.76-3.05Z"/>
  <path class="cls-4" d="m1045.98,305.06l22.15-31.21,2.05,7.17-3.52,4.96.87,3.49-4.03,5.68,1.35,5.13-5.09,7.17-1.32-5.17-5.74,8.09-.88-3.49-3.79,5.35-2.05-7.17Z"/>
  <path class="cls-4" d="m1048.27,313.07l3.25-4.58.65,2.62-3.18,4.49-.72-2.53Z"/>
  <path class="cls-4" d="m1049.23,316.44l3.16-4.45.77,3.05-3.09,4.35-.84-2.95Z"/>
  <path class="cls-4" d="m1068.66,300.97l-2.08,2.93-6.2,8.74-2.08,2.94-6.64,9.35-1.34-4.69,3.59-5.06-1-3.93,5.23-7.36,1.32,5.17,6.13-8.64-1.34-5.14,3.5-4.93.99,3.94,3.73-5.26,1.34,4.69-5.15,7.25Z"/>
  <path class="cls-9" d="m1036.42,276.57l7.41-10.44,10.71,7.6-7.41,10.44-10.71-7.6Z"/>
  <path class="cls-9" d="m1032.45,282.17l3.37-4.75,10.71,7.6-3.37,4.75-10.71-7.6Z"/>
  <path class="cls-9" d="m1018.31,285.08l22.32-31.45,13.13,9.32-4.23,5.97-5.96-4.23-12.56,17.71,5.95,4.22-5.52,7.77-13.13-9.31Z"/>
  <path class="cls-9" d="m1050.09,269.33l4.24-5.97,13.29,9.43-22.32,31.45-13.29-9.43,5.52-7.78,5.87,4.17,12.56-17.7-5.87-4.17Z"/>
  <path class="cls-9" d="m1078.54,265.68c3.5,4.89,4.62,9.05,3.28,12.12l2-.84c1.33-2.21,1.19-5.08-.41-8.54-2.89-6.33-10.39-13.78-18.89-19.8l-1.61,2.27h.08c6.58,4.68,12.12,9.91,15.56,14.74v.05Z"/>
  <path class="cls-9" d="m1075.92,266.69c3.71,5.21,4.56,9.55,2.45,12.56l2.45-1c3.86-6.31-6.14-18.14-18.24-26.72h-.08l-1.07,1.5c6.14,4.36,11.29,9.24,14.49,13.74v-.08Z"/>
  <path class="cls-9" d="m1069,242.34c7.7,5.46,14.14,11.62,18.12,17.34,3.98,5.72,5.25,10.72,3.62,14.4l2.38-1c5-7.35-7.64-22-22.74-32.7l-1.38,1.95h0Z"/>
  <path class="cls-9" d="m1089.75,274.47c4.47-7.74-7.07-21.62-21.15-31.62l-1.64,2.31c12.85,9.12,24.33,22.09,20.77,30.11l2-.82.02.02Z"/>
  <path class="cls-9" d="m1086.78,275.7c4.25-7.25-6.77-20.45-20.19-30l-1.61,2.26c8.54,6.06,16,13.59,19,20.1,1.52,3.32,1.77,6.14.76,8.42l2-.83.04.05Z"/>
  <path class="cls-9" d="m1087.76,275.29c3.56-8-7.92-21-20.77-30.11l-.39.56c13.42,9.53,24.44,22.72,20.19,30l1-.42-.03-.03Z"/>
  <path class="cls-9" d="m1081.82,277.8c1.34-3.07.22-7.23-3.28-12.12-3.5-4.89-9-10.06-15.56-14.74h-.07l-.39.55h.06c12.1,8.58,22.1,20.41,18.24,26.72l1-.42h0Z"/>
  <path class="cls-9" d="m1084.79,276.54c1-2.28.76-5.1-.76-8.42-3-6.51-10.48-14-19-20.1l-.45.64c8.5,6,16,13.46,18.88,19.79,1.6,3.46,1.74,6.33.41,8.54l1-.42-.08-.03Z"/>
  <path class="cls-9" d="m1087.12,259.63c-4-5.72-10.42-11.87-18.12-17.34l-.4.55c14.08,10,25.62,23.88,21.15,31.61l1-.42c1.63-3.68.41-8.62-3.62-14.4h-.01Z"/>
  <path class="cls-9" d="m1061.5,313.21l11.87,8.43-1.18,1.67-11.88-8.43,1.19-1.67Z"/>
  <path class="cls-9" d="m1069.65,301.28l11.84,8.4-1.34,1.89-11.84-8.4,1.34-1.89Z"/>
  <path class="cls-9" d="m992.26,264.41l11.86,8.42-1.03,1.45-11.86-8.42,1.03-1.45Z"/>
  <path class="cls-9" d="m1000.94,252.85l11.84,8.4-1.19,1.66-11.83-8.39,1.18-1.67Z"/>
  <path class="cls-10" d="m1122.27,348.96l1.93,1.37,9.15-12.9-1.92-1.36-9.16,12.89Zm47.18,33.48l1.92,1.37,9.15-12.9-1.92-1.36-9.15,12.89Zm-57.92-18.34l1.92,1.36,9.16-12.89-1.93-1.37-9.15,12.9Zm56.33,20.59l1.92,1.36-9.1,12.9-1.93-1.37,9.16-12.89h-.05Z"/>
  <path class="cls-10" d="m901.43,192.21l1.92,1.37,9.15-12.9-1.92-1.33-9.15,12.89v-.03Zm47.17,33.48l1.93,1.37,9.15-12.9-1.92-1.36-9.16,12.89Zm-57.92-18.34l1.92,1.36,9.15-12.89-1.92-1.37-9.15,12.9Zm56.32,20.59l1.92,1.36-9.15,12.9-1.92-1.37,9.15-12.89Z"/>
  <path class="cls-9" d="m985.24,351.92l1.68-2.36,2.73,1.94-1.64,2.38-2.77-1.96Z"/>
  <path class="cls-10" d="m1191.77,353.91l-9.92,14-.9-.64,9.92-14-46.19-32.79-9.92,14-.91-.64,9.93-14-46.19-32.78-16.26,22.9-.59.84-.89,1.25-.6.84-6.2,8.74-.6.84-.83,1.17-.66.93-16.88,23.78,46.19,32.79,9.93-14,.91.64-9.94,14,46.19,32.78,9.94-14,.9.64-9.93,14,46.19,32.78,43.5-61.3-46.19-32.77Zm16.58,13l11.86,8.41.38,2.32-8.21,11.57-2.55.43-11.57-8.21-.43-2.55,8.21-11.57,2.31-.4Zm-46.42,32.32l-.6-.43v-.18l8.41-11.86h.17l.61.44c.36.25.79.37,1.23.34.44-.03.85-.22,1.17-.52l10.71,7.6.43,2.55-8.22,11.57-2.54.43-10.71-7.6c.18-.4.21-.86.09-1.28-.12-.42-.39-.79-.75-1.04v-.02Zm-47-33.34l-.72-.51v-.18l8.42-11.86h.16l.74.52c.36.25.79.37,1.23.34.43-.03.84-.22,1.16-.52l10.58,7.51.45,2.55-8.27,11.61-2.55.43-10.59-7.51c.2-.4.24-.86.14-1.29-.11-.43-.37-.81-.73-1.07l-.02-.02Zm15.15-30.14l.63.45v.19l-8.41,11.85h-.17l-.63-.45c-.36-.25-.8-.37-1.23-.33-.44.04-.85.23-1.16.53l-10.7-7.59-.43-2.55,8.22-11.58,2.55-.43,10.69,7.59c-.19.41-.22.86-.1,1.29s.39.8.76,1.05l-.02-.02Zm47,33.35l.74.52v.19l-8.41,11.85h-.16l-.75-.53c-.36-.25-.8-.37-1.24-.34-.43.04-.85.22-1.16.53l-10.57-7.5-.44-2.56,8.22-11.58,2.56-.42,10.57,7.5c-.19.4-.24.86-.12,1.3.12.43.39.81.76,1.06v-.02Zm-4.41,15l-.62-.43v-.17l8.41-11.85h.18l.61.43c.35.26.79.38,1.22.35.44-.03.85-.22,1.17-.52l10.71,7.6.43,2.55-8.22,11.58-2.55.43-10.71-7.6c.19-.4.23-.86.12-1.29-.12-.43-.38-.81-.74-1.06v-.02Zm-.39,2c-.07.09-.15.17-.25.23-.09.06-.2.1-.31.11-.11.02-.22.01-.33-.01-.11-.03-.21-.07-.3-.14l-4.15-2.94c-.19-.13-.31-.33-.35-.55-.04-.22.01-.45.14-.64.13-.18.33-.3.55-.34.23-.04.45.01.64.14l4.15,3c.09.07.17.15.23.24.06.09.1.2.12.31.02.11.02.23-.01.34-.02.11-.07.21-.13.31v-.06Zm-17.73-15.24l-2.54.43-11.58-8.21-.43-2.55,8.22-11.58,2.55-.43,11.57,8.21.43,2.55-8.22,11.58Zm-15.1-10.72l-2.56.42-10.58-7.51c.18-.4.22-.85.11-1.28-.12-.42-.37-.8-.73-1.05l-.73-.52v-.16l8.41-11.85h.19l.72.51c.35.26.79.38,1.22.35.44-.03.85-.21,1.17-.52l10.58,7.51.45,2.55-8.25,11.55Zm-14.15-7.38c-.14.18-.34.3-.56.34-.22.04-.45-.02-.63-.15l-4.15-2.95c-.09-.06-.17-.14-.23-.24-.06-.09-.1-.2-.12-.31-.02-.11-.02-.22,0-.33.02-.11.07-.21.14-.3.13-.18.33-.3.55-.34.22-.04.45.01.63.14l4.15,2.95c.1.06.19.15.26.25.06.1.11.21.13.33.02.12.01.24-.02.36-.03.12-.09.22-.16.32v-.06Zm-17.84-15.33l-2.55.44-11.57-8.22-.43-2.54,8.22-11.59,2.55-.43,11.57,8.21.43,2.55-8.22,11.58Zm-2.94,1l.43,2.55-8.21,11.57-2.55.43-11.57-8.21-.43-2.55,8.21-11.57,2.55-.43,11.57,8.21Zm1,3l2.54-.44,10.7,7.6c-.19.39-.23.84-.12,1.27.12.42.37.79.73,1.04l.64.45v.16l-8.4,11.84h-.18l-.63-.44c-.36-.25-.79-.37-1.22-.33-.44.03-.85.21-1.16.51l-10.69-7.6-.44-2.54,8.23-11.52Zm32,22.7l2.55-.43,11.57,8.21.43,2.55-8.21,11.57-2.55.43-11.63-8.21-.43-2.55,8.27-11.57Zm15.11,10.72l2.56-.42,10.57,7.5c-.19.4-.23.84-.12,1.27.12.42.37.79.73,1.04l.75.54v.16l-8.44,11.86h-.18l-.74-.53c-.36-.25-.79-.37-1.22-.33-.44.03-.85.21-1.16.51l-10.57-7.5-.44-2.56,8.26-11.54Zm32,22.7l2.54-.43,11.51,8.23.44,2.55-8.22,11.57-2.54.43-11.58-8.21-.43-2.54,8.28-11.6Zm2.94-1l-.43-2.54,8.22-11.58,2.54-.44,11.57,8.22.44,2.54-8.23,11.6-2.55.44-11.56-8.24Zm3.64-40l2.07-.36,11.85,8.41.39,2.32-8.21,11.57-2.55.44-10.7-7.6c.19-.4.23-.85.12-1.28-.11-.43-.37-.8-.73-1.06l-.63-.45v-.14l8.39-11.85Zm-8.36,13.28c.18.13.31.33.34.56.04.22-.01.45-.15.64-.13.18-.33.31-.55.34-.23.04-.46-.02-.64-.15l-4.15-3c-.18-.13-.3-.33-.34-.55-.04-.22,0-.45.14-.63.06-.09.14-.17.24-.23.09-.06.2-.1.31-.12s.22-.02.33.01c.11.03.21.07.3.14l4.17,2.99Zm-6.44-25.61l11.85,8.41.35,2.07-8.41,11.85h-.14l-.77-.55c-.36-.25-.8-.37-1.23-.34-.44.04-.85.23-1.16.54l-10.58-7.5-.44-2.55,8.21-11.57,2.32-.36Zm-15.12-10.73l11.86,8.42.39,2.31-8.22,11.57-2.54.43-11.57-8.21-.44-2.55,8.22-11.57,2.3-.4Zm-25.61,1.49l8.41-11.85,2.08-.35,11.85,8.41.39,2.32-8.21,11.57-2.56.42-10.58-7.51c.19-.4.23-.85.12-1.28-.11-.43-.37-.8-.73-1.06l-.75-.53-.02-.14Zm.17,1.52c.18.13.31.33.35.55s-.01.45-.14.64c-.07.09-.15.17-.25.23-.09.06-.2.1-.31.11-.11.02-.22.01-.33-.01-.11-.03-.21-.07-.3-.14l-4.16-2.94c-.09-.07-.17-.15-.23-.24-.06-.1-.1-.2-.12-.31-.01-.11-.01-.22,0-.33.03-.11.08-.21.14-.3.07-.09.15-.17.25-.23.09-.06.2-.1.31-.12.11-.02.22-.01.33.01.11.03.22.07.31.14l4.14,2.95Zm-6.55-25.69l11.85,8.41.35,2.07-8.41,11.85h-.15l-.64-.45c-.36-.26-.8-.38-1.24-.34-.44.04-.85.23-1.16.54l-10.72-7.54-.43-2.55,8.21-11.57,2.34-.42Zm-15.12-10.73l11.86,8.41.38,2.31-8.23,11.55-2.55.43-11.57-8.22-.43-2.54,8.21-11.57,2.33-.37Zm-17.19-10.38l2.07-.35,11.86,8.41.39,2.31-8.22,11.58-2.54.43-11.58-8.22-.39-2.31,8.41-11.85Zm-16.88,23.78l2.08-2.93,4.07-5.73,2.32-.4,11.57,8.21.43,2.55-8.22,11.58-2.55.44-11.57-8.22-.39-2.31,2.26-3.19Zm-8.29,11.68l2.09-2.94,1.63-2.3,2.31-.38,11.57,8.21.43,2.55-8.21,11.57-2.55.43-11.57-8.21-.4-2.31,4.7-6.62Zm-3.24,32.19l-11.9-8.38-.35-2.07,8.42-11.86,2.31-.38,11.57,8.21.43,2.55-8.21,11.57-2.27.36Zm15.1,10.77l-11.86-8.42-.38-2.31,8.21-11.57,2.55-.43,11.57,8.21.43,2.55-8.21,11.57-2.31.4Zm17.18,10.37l-2.07.35-11.85-8.41-.4-2.31,8.22-11.58,2.54-.43,10.7,7.59c-.19.4-.23.85-.12,1.27.12.43.37.8.73,1.06l.64.45v.15l-8.39,11.86Zm8.34-13.3c-.18-.13-.31-.33-.34-.55-.04-.22,0-.45.14-.63.06-.09.14-.17.24-.23.09-.06.2-.1.31-.12.11-.02.22-.02.33.01.11.03.21.07.3.14l4.15,2.94c.09.07.17.15.23.24.06.1.1.2.11.31.02.11.02.22-.01.33-.02.11-.07.21-.14.3-.06.09-.15.17-.24.23-.1.06-.2.1-.31.12s-.23.01-.34-.01c-.11-.03-.21-.07-.3-.14l-4.13-2.95Zm6.45,25.63l-11.85-8.42-.35-2.07,8.42-11.86h.14l.75.53c.36.26.79.38,1.23.35.44-.03.85-.22,1.17-.53l10.58,7.51.44,2.55-8.21,11.57-2.32.37Zm15.12,10.73l-11.86-8.42-.38-2.31,8.21-11.57,2.55-.44,11.57,8.22.43,2.54-8.21,11.58-2.31.4Zm25.6-1.49l-8.42,11.86-2.07.35-11.85-8.41-.39-2.32,8.21-11.57,2.56-.43,10.57,7.51c-.19.4-.23.85-.12,1.27.11.42.36.8.72,1.05l.77.55.02.14Zm-.19-1.52c-.09-.07-.17-.15-.23-.24-.06-.1-.1-.2-.12-.31-.01-.11-.01-.22.01-.33.03-.11.08-.21.14-.3.07-.09.15-.17.25-.23.09-.06.2-.1.31-.12s.22-.01.33.01c.11.02.22.07.31.14l4.15,3c.09.07.17.15.22.24.06.1.1.2.12.31.02.11.01.22-.01.33-.03.11-.08.21-.14.3-.07.09-.15.17-.25.23-.09.06-.2.1-.31.11-.11.02-.22.01-.33-.01-.11-.03-.21-.07-.3-.14l-4.15-2.99Zm6.57,25.7l-11.85-8.41-.35-2.07,8.41-11.86h.15l.63.45c.36.26.79.38,1.23.34.44-.03.85-.22,1.17-.53l10.7,7.6.44,2.55-8.22,11.57-2.31.36Zm15.12,10.73l-11.86-8.42-.39-2.31,8.22-11.57,2.54-.43,11.57,8.21.44,2.55-8.22,11.57-2.3.4Zm17.2,10.38l-2.07.35-11.86-8.42-.38-2.31,8.21-11.57,2.55-.43,11.57,8.21.4,2.31-8.42,11.86Zm10.73-15.12l-2.31.39-11.57-8.22-.43-2.54,8.21-11.58,2.55-.43,11.57,8.21.4,2.31-8.42,11.86Zm10.73-15.12l-2.31.4-11.54-8.22-.44-2.54,8.22-11.58,2.55-.44,11.57,8.22.4,2.31-8.45,11.85Zm8.42-14.72l-11.57-8.21-.44-2.55,8.22-11.57,2.3-.4,11.86,8.42.36,2.07-8.42,11.85-2.31.39Z"/>
  <path class="cls-10" d="m973.6,291.23l15.39-21.69,3.58-5,6.2-8.73,3.53-5,14.81-20.87-46.18-32.77-9.93,14-.91-.65,9.92-14-46.19-32.79-9.92,14-.9-.64,9.92-14-46.19-32.74-43.51,61.29,46.19,32.71,9.94-14,.9.64-9.93,14,46.19,32.78,9.93-14,.91.65-9.93,14,46.18,32.81Zm-16.57-13l-11.85-8.41-.4-2.32,8.22-11.57,2.54-.43,11.58,8.21.44,2.56-8.22,11.57-2.31.39Zm-15.94-35.7l-.62-.45v-.18l8.42-11.86h.16l.63.45c.35.26.79.38,1.23.35.43-.03.85-.22,1.16-.53l10.7,7.59.43,2.55-8.21,11.57-2.55.43-10.7-7.59c.19-.4.23-.86.11-1.3-.12-.43-.39-.81-.76-1.05v.02Zm-47-33.35l-.74-.52v-.18l8.41-11.86h.17l.75.53c.35.25.79.38,1.22.34.44-.03.85-.22,1.16-.52l10.58,7.51.44,2.54-8.22,11.57-2.54.44-10.58-7.51c.19-.4.23-.86.12-1.29-.11-.43-.38-.81-.74-1.07l-.03.02Zm15.14-30.13l.61.43v.19l-8.41,11.85h-.16l-.62-.43c-.36-.25-.8-.37-1.23-.34-.44.03-.85.22-1.17.53l-10.7-7.6-.44-2.55,8.22-11.58,2.56-.43,10.69,7.59c-.18.41-.2.86-.08,1.28.12.42.39.79.76,1.04l-.03.02Zm47,33.34l.72.51v.2l-8.41,11.85h-.17l-.73-.52c-.36-.25-.8-.37-1.24-.34-.43.04-.85.22-1.16.53l-10.56-7.51-.43-2.55,8.22-11.58,2.55-.43,10.58,7.51c-.18.4-.21.84-.09,1.26s.37.78.73,1.03v.04Zm10.45,27.42l-.43-2.55,8.22-11.58,2.55-.44,11.57,8.22.44,2.55-8.22,11.58-2.56.43-11.57-8.21Zm11.62,11.32l-8.22,11.57-2.55.43-11.57-8.22-.44-2.54,8.22-11.58,2.55-.43,11.57,8.21.44,2.56Zm-12.62-14.27l-2.55.43-10.69-7.59c.19-.4.23-.85.12-1.27-.12-.42-.37-.8-.73-1.05l-.63-.45v-.17l8.41-11.85h.19l.62.45c.35.25.79.37,1.22.34.44-.03.85-.22,1.16-.52l10.7,7.59.43,2.55-8.25,11.54Zm-14.25-7.45c-.13.18-.33.3-.55.34-.22.04-.45-.01-.63-.14l-4.15-2.95c-.09-.07-.17-.15-.23-.24-.06-.1-.09-.2-.11-.31-.02-.11-.02-.22.01-.33.03-.11.07-.21.14-.3.06-.09.15-.17.24-.23.1-.06.2-.1.31-.12.12-.02.23-.01.34.01.11.03.21.07.3.14l4.15,2.94c.09.07.17.15.22.24.06.1.1.2.12.31.01.11.01.22-.02.33-.03.11-.07.21-.14.3h0Zm-1.17-3.14l-.91-.65,8.56-12.06.92.65-8.57,12.06Zm-16.58-12.11l-2.55.43-11.55-8.24-.44-2.55,8.23-11.58,2.54-.43,11.57,8.21.44,2.55-8.24,11.61Zm-15.11-10.72l-2.55.43-10.56-7.52c.19-.4.23-.85.12-1.27-.12-.42-.37-.8-.73-1.05l-.75-.54v-.16l8.41-11.85h.18l.74.52c.35.25.79.38,1.22.34.43-.03.84-.21,1.16-.51l10.58,7.51.44,2.54-8.26,11.56Zm-14.14-7.38c-.06.09-.14.17-.24.23-.09.06-.2.1-.31.12-.11.02-.22.01-.33-.01s-.21-.07-.3-.14l-4.13-2.91c-.18-.13-.31-.33-.35-.56-.04-.22.02-.45.15-.64.13-.18.33-.31.56-.35.22-.04.45.02.64.15l4.15,2.95c.17.13.29.32.32.54.04.21,0,.43-.14.61h-.02Zm-1.29-3.23l-.9-.64,8.56-12.06.9.64-8.56,12.06Zm-16.56-12.1l-2.55.44-11.55-8.22-.43-2.54,8.22-11.59,2.55-.43,11.57,8.22.43,2.54-8.24,11.58Zm-2.94,1l.43,2.55-8.21,11.57-2.55.43-11.57-8.21-.43-2.55,8.21-11.57,2.55-.43,11.57,8.21Zm1,2.95l2.56-.43,10.69,7.59c-.18.4-.22.85-.11,1.27.11.42.37.79.73,1.05l.62.44v.16l-8.42,11.86h-.18l-.61-.43c-.36-.25-.79-.37-1.23-.34s-.85.21-1.16.51l-10.69-7.59-.44-2.55,8.24-11.54Zm15.43,10.59l.91.64-8.57,12.06-.9-.64,8.56-12.06Zm16.61,12.08l2.55-.43,11.57,8.21.44,2.55-8.22,11.57-2.54.43-11.58-8.21-.43-2.55,8.21-11.57Zm15.12,10.73l2.55-.43,10.58,7.51c-.18.4-.22.85-.11,1.27s.37.79.73,1.05l.73.52v.17l-8.42,11.86h-.19l-.72-.51c-.36-.25-.79-.37-1.23-.34-.43.03-.84.21-1.16.51l-10.58-7.51-.43-2.55,8.25-11.55Zm15.43,10.58l.91.65-8.61,12.04-.92-.64,8.62-12.05Zm27,59.91l-2.08.35-11.85-8.42-.39-2.31,8.22-11.57,2.54-.43,11.57,8.21.4,2.31-8.41,11.86Zm17.51-24.68l-2.06,2.96-4.7,6.62-2.31.39-11.57-8.22-.44-2.54,8.22-11.58,2.54-.43,11.57,8.21.4,2.31-1.65,2.28Zm8.28-11.67l-2.08,2.93-2.26,3.2-2.32.4-11.57-8.21-.43-2.55,8.22-11.58,2.54-.44,11.57,8.22.4,2.31-4.07,5.72Zm2.6-31.34l11.86,8.42.35,2.07-8.41,11.85-2.32.39-11.57-8.21-.43-2.55,8.21-11.57,2.31-.4Zm-15.11-10.73l11.85,8.42.39,2.31-8.21,11.57-2.56.43-11.57-8.21-.43-2.55,8.21-11.57,2.32-.4Zm-17.19-10.37l2.07-.36,11.85,8.41.39,2.32-8.21,11.57-2.55.44-10.68-7.59c.18-.4.23-.85.11-1.28-.11-.43-.36-.8-.72-1.06l-.65-.46v-.14l8.39-11.85Zm-8.34,13.3c.18.13.3.33.34.55.04.22-.01.45-.14.63-.13.18-.33.31-.55.34-.23.04-.46-.01-.64-.14l-4.15-2.95c-.19-.13-.31-.33-.35-.55-.04-.22,0-.45.14-.64.13-.18.34-.3.56-.34.22-.04.45.02.64.15l4.15,2.95Zm-6.46-25.63l11.86,8.42.35,2.07-8.41,11.85h-.14l-.75-.54c-.36-.25-.8-.37-1.24-.34-.44.04-.86.23-1.17.54l-10.58-7.51-.44-2.55,8.22-11.57,2.3-.37Zm-15.11-10.73l11.86,8.42.38,2.31-8.21,11.57-2.55.43-11.57-8.21-.43-2.55,8.21-11.57,2.31-.4Zm-17.19-10.37l2.07-.35,11.85,8.41.39,2.32-8.21,11.62-2.55.43-10.57-7.5c.19-.4.23-.85.12-1.28-.11-.43-.37-.8-.73-1.06l-.76-.54v-.15l8.39-11.9Zm-8.23,13.38c.18.13.31.33.34.55.04.22-.01.45-.14.64-.13.18-.33.3-.55.34-.22.04-.45-.01-.63-.14l-4.15-3c-.09-.07-.17-.15-.23-.24-.06-.1-.1-.2-.12-.31-.01-.11-.01-.23.02-.33.02-.11.07-.21.13-.3.07-.09.15-.17.25-.23.09-.06.2-.1.31-.12.11-.02.23-.01.34.01.1.02.21.07.3.14l4.13,3Zm-6.57-25.7l11.85,8.41.35,2.07-8.41,11.84h-.14l-.63-.45c-.36-.26-.8-.38-1.24-.34-.44.04-.86.23-1.17.54l-10.7-7.6-.44-2.55,8.21-11.57,2.32-.35Zm-15.12-10.68l11.86,8.41.39,2.31-8.22,11.58-2.54.43-11.58-8.22-.43-2.54,8.21-11.57,2.31-.4Zm-17.18-10.38l2.07-.35,11.85,8.41.4,2.32-8.22,11.57-2.54.43-11.57-8.22-.39-2.3,8.4-11.86Zm-10.73,15.12l2.31-.4,11.57,8.22.44,2.55-8.22,11.58-2.55.43-11.57-8.22-.39-2.31,8.41-11.85Zm-10.71,15.08l2.3-.39,11.57,8.21.44,2.56-8.21,11.57-2.56.42-11.54-8.19-.39-2.3,8.39-11.88Zm-7,37.46l-11.85-8.41-.35-2.07,8.42-11.86,2.3-.39,11.57,8.21.44,2.56-8.21,11.57-2.32.39Zm15.16,10.72l-11.86-8.42-.38-2.31,8.21-11.57,2.55-.43,11.57,8.21.43,2.55-8.21,11.57-2.31.4Zm25.6-1.49l-8.42,11.86-2.07.35-11.85-8.41-.42-2.31,8.21-11.58,2.56-.42,10.69,7.59c-.19.4-.23.85-.11,1.28.11.43.37.8.73,1.05l.63.45.05.14Zm-.06-1.42c-.18-.13-.31-.33-.35-.56s.01-.45.14-.64c.13-.18.33-.3.56-.34.22-.04.45.02.63.15l4.16,3c.09.07.17.15.23.24s.1.2.12.31c.02.11.01.22-.01.33-.03.11-.07.21-.14.3-.07.09-.15.17-.24.23-.09.06-.2.1-.31.11-.11.02-.22.01-.33-.01s-.21-.07-.3-.14l-4.14-2.99Zm6.44,25.61l-11.85-8.42-.35-2.07,8.41-11.86h.15l.76.54c.36.25.8.37,1.23.34.44-.04.85-.22,1.17-.53l10.57,7.5.44,2.55-8.22,11.57-2.31.38Zm15.11,10.73l-11.86-8.43-.38-2.31,8.21-11.57,2.55-.44,11.57,8.22.44,2.54-8.22,11.56-2.31.43Zm17.19,10.37l-2.07.36-11.86-8.42-.38-2.31,8.21-11.57,2.55-.44,10.58,7.52c-.19.4-.23.85-.12,1.27.12.42.38.8.74,1.05l.75.54v.14l-8.4,11.86Zm8.24-13.37c-.09-.07-.17-.15-.23-.24-.06-.1-.1-.2-.12-.31-.01-.11-.01-.22.02-.33.02-.11.07-.21.13-.3.07-.09.15-.17.25-.23.09-.06.2-.1.31-.12.11-.02.23-.01.34.01.1.02.21.07.3.14l4.15,2.95c.09.07.17.15.23.24.06.1.1.2.11.31.02.11.02.23-.01.33-.02.11-.07.21-.14.3-.06.09-.14.17-.24.23s-.2.1-.31.12-.23.01-.34-.01c-.11-.02-.21-.07-.3-.14l-4.15-2.95Zm2.77,3.35h.14l.65.46c.36.25.8.37,1.23.34.44-.04.85-.22,1.17-.53l10.69,7.59.43,2.55-8.21,11.57-2.32.39-11.85-8.41-.35-2.07,8.42-11.89Z"/>
  <path class="cls-10" d="m1093.9,263.61c-.13-.32-.27-.63-.42-.94-.89-1.77-1.94-3.46-3.12-5.05-4.33-5.89-11.22-12.32-19.38-18.12-6.37-4.61-13.3-8.41-20.62-11.3-3.63-1.41-7.47-2.24-11.36-2.44-3.45,0-6.22,1.05-7.9,3.41l-.08.12-1.09,19.68,1.52-2,.4-.68c4-5.7,17.65-.54,29,7.52,11.08,7.86,20.25,18.65,16.94,24.46l-1.73,3,17.73-7.31.09-.11c1.8-2.68,1.8-6.14.02-10.24Zm-15.53,15.64c2.11-3,1.26-7.35-2.45-12.56-3.2-4.5-8.35-9.38-14.49-13.74-11.35-8.06-25.65-13.77-30.37-7.36l.14-2.32c4.52-6,19.16-.44,31.38,8.23,12.22,8.67,22.1,20.41,18.24,26.72l-2.45,1.03Zm3.45-1.45c1.34-3.07.22-7.23-3.28-12.12-3.5-4.89-9-10.06-15.56-14.74-11.66-8.27-26.17-14.27-31.72-8.78l.13-2.22c1.64-2.06,4.43-2.91,8.29-2.56,13.83,1.31,37.94,18.41,43.72,31,1.6,3.46,1.74,6.33.41,8.54l-1.99.88Zm3-1.26c1-2.28.76-5.1-.76-8.42-3-6.51-10.48-14-19-20.1-8.52-6.1-18.11-10.64-25.26-11.32-3.68-.35-6.47.38-8.29,2.15l.13-2.22c5.41-6.5,21.56-.44,35,9.1,13.44,9.54,24.44,22.73,20.19,30l-2.01.81Zm3-1.25c3.56-8-7.92-21-20.77-30.11-6.44-4.57-13.68-8.5-20.11-10.52-6.43-2.02-12-2.15-15.22.89l.13-2.25c5.83-6.74,22.75-.43,36.81,9.55,14.06,9.98,25.62,23.88,21.15,31.62l-1.99.82Zm5.36-2.24l-2.38,1c1.63-3.68.41-8.62-3.62-14.4s-10.42-11.88-18.13-17.35c-13.48-9.57-30.35-16.43-37.14-10l.16-2.58c5.29-7.11,23.26,0,38.36,10.68,15.1,10.68,27.66,25.3,22.69,32.65h.06Z"/>
  <path class="cls-10" d="m1009.18,300.63c3.9-4.48,11.51-2.41,17.13,1.58s10.1,10.49,7.16,15.66c.23.27.48.53.71.8,1.61-2.57,1.66-5.65.13-8.93-1.72-3.37-4.26-6.25-7.4-8.37-6.11-4.34-14.48-6.46-18.72-1.15l.99.41Z"/>
  <path class="cls-10" d="m1033.1,317.46c1.71-5.34-2.34-11.17-7.22-14.63-2.45-1.78-5.27-2.99-8.25-3.55-1.36-.3-2.77-.31-4.13-.04-1.37.27-2.66.82-3.81,1.61l1.09.49c4.07-2.6,10.11-.78,14.5,2.34,2.23,1.55,4.13,3.55,5.56,5.86,1.37,2.06,1.89,4.57,1.44,7l.82.92Z"/>
  <path class="cls-10" d="m1073.09,287.46l-.16-.58-.57-2-3.58-12.53-28.29-20.07-12.69.73-2.1.12-7.59.44-4.46,6.29-1.56,2.2-.89,1.26-8.26,11.63v.05l-.6.83-7.11,10h-.39l3.26,11.41s.4.06,1.12.21l-3-10.67,21.12-1.22,27.7,19.66,5.82,20.35-11,.63c.2.33.4.66.59,1l11.76-.69-.1-.38,7.11-10,.6-.84.89-1.25.6-.85,3.14-4.42,3.66-5.15.23-.34,1.25-1.76,5.43-7.65-1.82-6.39-.11-.02Zm-.87.72l-3.18,4.48-.76-3.05,3.1-4.38.84,2.95Zm-1.06-3.75l-3.08,4.34-.65-2.62,3-4.26.73,2.54Zm-42.61-30.42l2.63-.16-2.92,4.1-2.69.25,2.98-4.19Zm-.87,0l-3,4.22-3.14.28,3.07-4.32,3.07-.18Zm-31.17,31.73l6.64-9.36,2.09-2.94,6.2-8.73,2.08-2.93,5.14-7.25,5.08-.3-3.62,5.11,4-.37-3.44,4.98-5.29.43-6.14,8.65,5.33-.47-5.23,7.36-4,.37-3.69,5.21-5.15.24Zm6-.35l3.2-4.5,3.13-.28-3.17,4.47.18.12-3.34.19Zm3.94-.22l3.29-4.65,2.69-.24-3.36,4.74-2.62.15Zm3.5-.21l3.91-5.51-3.59.33,5.74-8.09-5.3.47,5.09-7.17,5.27-.43,4-5.67,3.59-.33,3.41-4.81,7.5-.43-22.14,31.2-7.48.44Zm8.41.08l22.32-31.4,13.13,9.32-4.23,6-5.95-4.23-12.57,17.71,6,4.22-5.52,7.77-13.18-9.39Zm18.11-8.51l7.41-10.44,10.7,7.6-7.4,10.44-10.71-7.6Zm10.11,8.44l-3.37,4.75-10.71-7.6,3.37-4.75,10.71,7.6Zm-14.52,9.79l5.52-7.78,5.87,4.17,12.56-17.7-5.87-4.17,4.24-6,13.29,9.44-22.32,31.44-13.29-9.4Zm14,10.25l22.15-31.21,2,7.17-3.52,4.95.87,3.5-4,5.68,1.35,5.13-5.09,7.17-1.32-5.17-5.82,8.12-.87-3.49-3.8,5.35-1.95-7.2Zm2.29,8l3.25-4.58.65,2.62-3.18,4.49-.72-2.53Zm1,3.37l3.16-4.45.77,3.05-3.09,4.35-.84-2.95Zm19.33-15.41l-2.08,2.93-6.21,8.74-2.08,2.94-6.64,9.35-1.34-4.69,3.59-5.06-1-3.93,5.23-7.36,1.31,5.17,6.14-8.64-1.34-5.14,3.5-4.93,1,3.94,3.73-5.26,1.34,4.69-5.15,7.25Z"/>
  <path class="cls-11" d="m727.68,500.35c-213.16,0-398.2,120.39-490.84,296.88l981.32-.7c-92.77-176.11-277.6-296.18-490.48-296.18Z"/>
  <path class="cls-10" d="m304.33,795.89h847.36c-84.38-146.28-242.33-244.78-423.33-244.9-181.26-.15-339.54,98.41-424.03,244.9Z"/>
  <path class="cls-9" d="m304.33,795.89h847.36c-84.38-146.28-242.33-244.78-423.33-244.9-181.26-.15-339.54,98.41-424.03,244.9Z"/>
  <path class="cls-4" d="m578.68,786.51c1.54-7.41,22.29-20.22,37.61-24,15.32-3.78,19-10.31,16.73-15.22-2.27-4.91.33-12.67.33-15.12s.53-3.94,3-2.76c2.47,1.18,6.18-3.83,12.47-5.53,6.29-1.7,4.48-8.2,9.8-10.65s10.55-1.48,18.11-1.9c7.56-.42-8.51-13.21,8.64-17.67,17.15-4.46,23.85-.73,24.62-5.63.77-4.9,2.22-3.83,7.33-4.15,5.11-.32,0,1.92-5.33,6.49-5.33,4.57,1.81,8.1,10,6.29s15.69-6.31,19.93-8.77c4.24-2.46,10.12.44,9.8-4.36-.32-4.8-8.48-4.2-12.56-4.58-4.08-.38-2.45-1.18-6.28-2.67s-2.88-3.84-5.86-5.76c-2.98-1.92-.1-3.08-.52-6.07-.42-2.99,3.72-1.59,7-5,3.28-3.41-8.09-5-15.93-4.08-7.84.92-16.45,3-21.26,5.41-4.81,2.41-7.59,3.23-7.19,1.58.4-1.65,8.59-6.63,13-6.23,4.41.4,6,.22,8.52-1.91s.65-4.58,13.32-4.25c12.67.33,26.19,3.85,34.4-1.89,8.21-5.74,9.48-4.26,17.84-6.09,8.36-1.83,7-7.64,6.24-9.66-.76-2.02-5.11-3.84-6.6-5.33-1.49-1.49-3.09-1-5.75-.85-2.66.15,1.06-.75-3.09-4.69-4.15-3.94-13.2-2.46-15.44-4.06-2.24-1.6-4-1.71-6.81-1.07-2.81.64-1.38-2.45.54-4.94,1.92-2.49-10.86-7.74-17.78-12.86s-6.07.1-6.67,3.49c-.6,3.39-7.71,3.32-10.16,4.7s-5.54-.85-7.88-3.09c-2.34-2.24-2.45-4.69-1.27-8.32s-2.69-1.71-5.22,0c-2.53,1.71-7.35-4.36-10.75-6.49-3.4-2.13-18.11-.65-21.2-.79-3.09-.14-5.75,1.41-6,7.26s-3.83,3.52-5.75,8.85c-1.92,5.33,5.32,5.64,5.85,8.84.53,3.2-8.37,8.2-17,8.93s-6.71,17.36-6.93,21.72c-.22,4.36-4.48,8.31-8.85,7.67s-7-13.11-6.27-19.92c.73-6.81.11-9.59-5.22-8.95-5.33.64-7.87-.75-12-2.67-4.13-1.92-5.44,0-9.16-5.12-3.72-5.12-11-3.1-15.52-.9s-5.11,1.44-3.67-3.52-2.53-3.05-.09-7.1c2.44-4.05,14.5-8.19,21.75-9.77s9.37-2.35,14.59-5.09c5.22-2.74,11.86,0,14.74-1.79s8.91-5.76,11.42-7,5.55.64,9-.91c3.45-1.55,12.46-1.23,14.82-3.31,2.36-2.08-2.87-4.39-.79-6.87,2.08-2.48,8.22,1.21,11.69,2.41,3.47,1.2,2.91-2.28,4.8-4.83s2.08,2.68,6.67,5.51c4.59,2.83-10.15-.24-7.08,3.65,3.07,3.89,14.78-5.24,17.5-2.6,2.72,2.64-23.29,7.21-27.52,8.81-4.23,1.6-1,3.51,8.18,3.28s14.86,1.88,19.17,4.28c4.31,2.4,21.4,4.45,24.28,1.26s-13.22-3.25-13-5c.22-1.75,12.4,1.4,15.3-.71,2.9-2.11-4.87-2-8.54-5.28-3.67-3.28,7.94-2.19,14.65-.31s4.12-.71,5.36-3-5.47-2.44-14.18-4.16c-8.71-1.72-2.79-2.16-1.75-4.12,1.04-1.96-8-2.28-14.22-2.84-6.22-.56-6.79-2.72-4.71-5.52s-8.14-.8-11.94.71-4.11,1.8-10.54,0-15.46,7.25-17,4.36c-1.54-2.89-5.63-1.26-9.9.33-4.27,1.59.79,3.71,3.83,6.51,3.04,2.8-7.91,4.23-9.59,6.11s-5.47-.2-2.52-1.88c2.95-1.68,2-4.59-2.75-5s-9.63,5.07-12,5.51.52-1.68-.12-5.6c-.64-3.92-8.19,5.35-11.39,8-3.2,2.65-10.18.52-15.69,2.19-5.51,1.67-13.82,2.67-16.74,1.31-2.92-1.36,0-2.6,7.83-4.43,7.83-1.83-.59-3.24-8.54-.21-7.95,3.03-7.59,3.59-7.44,7,.15,3.41-5,2.39-9.92.08-4.92-2.31-8.33,5.14-9.54,2.4-1.21-2.74-3-1.43-3-1.43-71.79,28.58-132.26,79.56-132.26,79.56-13.28,10.49-13.29,21.69-24.38,28.77-11.09,7.08-19.19,27-28.36,37.68-9.17,10.68-14.72,36.41-11.1,45.57,1.71,4.35.83,11.82-.34,19.13h168.65c2.7-.36,5.37-.87,8-1.54,6.85-1.69,8.27-.39,10.27,1.54h39.38c-.76-3.07-.79-6.28-.1-9.37h0Z"/>
  <path class="cls-4" d="m632.41,589.34s-5.48-.84-4.79.84c.69,1.68,4,1.9,5.64,1.24,1.64-.66,3.71-.67,3-1.71-.71-1.04-3.57-.28-3.85-.37Z"/>
  <path class="cls-4" d="m638.91,587.04c-1,.75-3.72,3-1.12,2.72,2.6-.28,4.31-.33,6.66-.36,2.35-.03,5.4-.25,3.79-1.13s-4.71-4.57-9.33-1.23Z"/>
  <path class="cls-4" d="m651.89,586.13c-1.34-.29-1.29.32-2,1.22-.71.9.17,2,1.55,1.85,1.38-.15,1.93-2.75.45-3.07Z"/>
  <path class="cls-4" d="m650.52,591.08c-.63.22-1.19.62-1.6,1.16-.41.53-.65,1.17-.7,1.84.11,1,1.31,1.23,2.93,1,1.62-.23,3.78-.47,3.15-1.91s-.85-2.94-3.78-2.09Z"/>
  <path class="cls-4" d="m639.43,590.83c-.65.2-4.21,1-4.42,2.14-.21,1.14,1.17,1.93,3.35,2.15,2.18.22,3.22.44,4.32-1.07s2-1.54,1.12-2.58-2.84-1.12-4.37-.64Z"/>
  <path class="cls-4" d="m754,668.12c-2.08,1.58-5.28,5-5.76,6.07-.48,1.07,4.1,4.47,4.8,5.39.7.92,1.5-1.47,2.18-.59s.6,2.71,3.64,1.88c3.04-.83,5-.95,3.6-3-1.4-2.05-2,.11-3.28-3.75-1.28-3.86.49-7-1.83-7.78-2.32-.78-1.08.06-3.35,1.78Z"/>
  <path class="cls-4" d="m771.69,650.35c-2.09,1.92-1.88,6.84-3.72,7.64-1.84.8-7,1-6.55,2.87s6.41-.72,5.44,1.24c-.97,1.96-6.73,3-5.25,4.09,1.48,1.09,6.59.88,11.95-.19,5.36-1.07,7,.37,8.13,1.54,1.13,1.17,3,1.07,5.12.6,2.12-.47,5.68-1.83,3.84-.23-1.84,1.6-5.4,3.12-4.7,4.55s1.92,3.29,4.75.61c2.83-2.68,8.62-3.19,9.58-5.16.96-1.97,5.15-2.78,2.83-5.5-2.32-2.72-1.83-3,0-3.92,1.83-.92,4.08-1.75-.47-3.51s-11-2.61-14.22-2.17c-3.22.44-10.3.37-7.58-2.45s8.07-9.66,4.56-10.2c-3.51-.54-7,3.58-10.63,3.63-3.63.05-1.25,4.91-3.08,6.56Z"/>
  <path class="cls-4" d="m807.83,666.03c1.51.54,6.31-3.38,5.67-1s-1.12,9.28-3.36,10.15c-2.24.87-7.51,1.82-7.91-.34-.4-2.16-3.42-2.08-1.95-3.91,1.47-1.83,4.04-6.15,7.55-4.9Z"/>
  <path class="cls-4" d="m834.51,732.87c7.06-4,3.83-4.9,16.19-6.38,12.36-1.48,25.1.53,31.4,1.56,6.3,1.03,11.62,5.5,18.86,8.27,7.24,2.77,10,7.89,16.18,8.11,6.18.22,12.56,8.31,14.9,9.59,2.34,1.28,10.86,6.4-1.07,7.88-11.93,1.48-32.58-.66-35.14,0-2.56.66,1.92-4.47-2.34-7.24-4.26-2.77-4-8.95-8.72-9.38-4.72-.43-12.57-2.57-21.3-4.7-8.73-2.13-25.35,4.89-29,3.6-3.65-1.29-8.87-6.28.04-11.31Z"/>
  <path class="cls-4" d="m954.18,758.77c5.09.77,14.7,2.1,20.45,5.29s16.7,5.74,14.56,10.66-.79,8.79-6.94,6.09c-6.15-2.7-9.76-2-15.3,0s-11.09,10.09-14.49,5.61-13.42-4-21.72-5.63c-8.3-1.63-11.21-7.6-6.77-8.23s16.54-.84,16.57-4.89,6.49-9.98,13.64-8.9Z"/>
  <path class="cls-4" d="m1006.91,776.17c6.85.53,14.7,3.14,13,4.66-1.7,1.52-4.24,2.64-7.67,4.23-3.43,1.59-3.44,0-7.43-.68s-10.38-4-8.14-5.88,7.01-2.57,10.24-2.33Z"/>
  <path class="cls-4" d="m897.78,705.65c2.9.73,6.76,1.71,7.74,4.9.98,3.19,4.38,13-2,12.78-6.38-.22-8.85-1.71-10.91-6.82-2.06-5.11-4.2-13.16,5.17-10.86Z"/>
  <path class="cls-4" d="m718.05,554.85c2.68-.1,10.54-.07,18.53-.82s21.43-2,44.5,1.84c23.07,3.84,33.24,6.26,47.13,8.66,13.89,2.4,42.76,6.94,35.94,10.55s-14.27-1.07-13.1,3.72c1.17,4.79-12.78.63-12,5.85.78,5.22,8.19,21.94.84,20.34-7.35-1.6-15.12-5.12-23.74-7.15-8.62-2.03-8.1,1.06-25.13-7.37-17.03-8.43-18.84-13.64-22-15.35-3.16-1.71-.21-2.55-4.36-3.62s4.05-2.45-3.09-4.26c-7.14-1.81-8-6.72-18.95-7-10.95-.28-21,2.33-29.6.62-8.6-1.71-18.64-3.63-12.68-4.8s12.41-1,17.71-1.21Z"/>
  <path class="cls-4" d="m886.69,591.45c13.25,2.26,20.77,3.75,20.48,1-.29-2.75-1.63-5-6.9-7.25-5.27-2.25-19-6.4-18.53-2.25.47,4.15,1.55,7.92,4.95,8.5Z"/>
  <path class="cls-4" d="m962.31,634.04c7.94,8.91,11.92,13.64,18.73,16.2,6.81,2.56,15.84,3.92,12.89-6s-2.3-17.87-14-17.72c-11.7.15-27.94-4.06-17.62,7.52Z"/>
  <path class="cls-4" d="m1035,675.85c3,6,29.39,24.94,21.72,26-7.67,1.06-10.23,4.47-2.78,13.2,7.45,8.73,17.69,11.44,20.33,23.09,2.64,11.65,8,16.48,15.42,20.15s5.13-2.36,10,.86c4.87,3.22,7,5.78,6.81-2.74-.19-8.52,2.14-5.53-5.31-17.47s-6.92-22-15.32-28.12c-8.4-6.12-71.35-75.85-50.87-34.97Z"/>
  <path class="cls-4" d="m1129.14,765.1c-34.78-41.22-11.15,1.36-20.93.79s-10.18-.86-10.43,3.08c-.49,7.58,2.43,18.1,3.72,26.9h48.52c-6.03-10.86-13.02-21.15-20.88-30.77h0Z"/>
  <path class="cls-9" d="m304.33,795.89h166.23c-6.34-29.25,3.28-62.73,22.81-86.45,26.67-32.42,67.32-49.89,107.62-61.67,68.37-19.95,139.88-26.87,210.81-20.42,15.89,1.46,32.26,3.54,47.53-1.08,20.28-6.14,34.8-23.39,42.33-43.54-55.36-21.03-114.08-31.8-173.3-31.79-181.26-.1-339.54,98.46-424.03,244.95Z"/>
  <path class="cls-10" d="m128.77,339.25l5.7-5.71c.39-.39.7-.85.91-1.35.21-.51.32-1.05.32-1.6s-.11-1.09-.32-1.6c-.21-.51-.52-.97-.91-1.35h0c-.39-.39-.85-.7-1.35-.91-.51-.21-1.05-.32-1.6-.32s-1.09.11-1.6.32c-.51.21-.97.52-1.35.91l-5.71,5.7c-.78.78-1.22,1.85-1.22,2.96s.44,2.17,1.22,2.96c.79.78,1.85,1.22,2.96,1.22s2.17-.44,2.96-1.22h0Z"/>
  <path class="cls-10" d="m206.68,395.79l3.62-7.21c.25-.49.4-1.03.44-1.57.04-.55-.03-1.1-.2-1.62-.17-.52-.45-1-.81-1.42-.36-.42-.8-.76-1.29-1h0c-.99-.49-2.14-.58-3.19-.23-1.05.35-1.92,1.1-2.42,2.09l-3.62,7.22c-.25.49-.39,1.03-.44,1.57-.04.55.03,1.1.2,1.62s.45,1,.81,1.42c.36.42.8.76,1.29,1h0c.99.5,2.14.58,3.19.23,1.05-.35,1.92-1.1,2.42-2.09Z"/>
  <path class="cls-10" d="m156.75,323.13l4.29-.62c.54-.08,1.07-.26,1.54-.54.47-.28.89-.65,1.22-1.09.33-.44.57-.94.71-1.47.14-.53.17-1.09.09-1.63h0c-.16-1.1-.75-2.08-1.63-2.75-.89-.66-2-.95-3.1-.8l-4.3.62c-1.1.16-2.09.75-2.75,1.63-.66.89-.95,2-.79,3.1h0c.08.54.26,1.07.54,1.54.28.47.65.89,1.09,1.22.44.33.94.57,1.47.71.53.14,1.09.16,1.63.09Z"/>
  <path class="cls-10" d="m122.69,379.74l-.62-4.29c-.16-1.1-.75-2.09-1.63-2.75-.89-.67-2-.95-3.1-.8h0c-1.1.16-2.09.75-2.76,1.63-.67.89-.95,2.01-.79,3.11l.62,4.29c.16,1.1.75,2.09,1.63,2.75.89.67,2,.95,3.1.8h0c1.1-.16,2.09-.75,2.75-1.64.66-.89.95-2,.8-3.1h0Z"/>
  <path class="cls-10" d="m214.68,372.73v-8.38c0-1.19-.97-2.16-2.16-2.16h-4.04c-1.19,0-2.16.97-2.16,2.16v8.38c0,1.19.97,2.16,2.16,2.16h4.04c1.19,0,2.16-.97,2.16-2.16Z"/>
  <path class="cls-10" d="m148.97,416.1l4.19,1.12c.53.14,1.09.18,1.64.1.55-.07,1.07-.26,1.55-.54.48-.28.89-.65,1.22-1.09.33-.44.57-.94.71-1.48h0c.14-.53.18-1.09.1-1.64-.08-.55-.26-1.07-.54-1.55s-.65-.89-1.09-1.22c-.44-.33-.94-.57-1.48-.71l-4.19-1.12c-.53-.14-1.09-.18-1.64-.1-.55.08-1.07.26-1.55.54-.48.28-.89.65-1.22,1.09-.33.44-.57.94-.71,1.48h0c-.14.53-.18,1.09-.1,1.64.07.55.26,1.07.54,1.55s.65.89,1.09,1.22c.44.33.94.57,1.48.71h0Z"/>
  <path class="cls-10" d="m163.47,414.96c26.65,0,48.25-21.6,48.25-48.25s-21.6-48.25-48.25-48.25-48.25,21.6-48.25,48.25,21.6,48.25,48.25,48.25Z"/>
  <path class="cls-9" d="m181.02,338.1c.12,2.32-.51,4.61-1.78,6.55-1.3,1.99-3.11,3.59-5.25,4.63-2.19,1.11-4.73,1.32-7.08.6-2.23-.71-4.14-2.17-5.4-4.14,1.72,1.27,3.7,2.14,5.79,2.55.99.17,2.01.17,3,0,.98-.15,1.93-.46,2.81-.9.45-.23.91-.47,1.35-.73.44-.26.86-.55,1.25-.88.83-.61,1.58-1.32,2.25-2.1,1.37-1.65,2.41-3.54,3.06-5.58h0Z"/>
  <path class="cls-9" d="m163.68,340.86c-.22-1.61.14-3.24,1-4.61.86-1.43,2.13-2.57,3.63-3.3.77-.39,1.61-.62,2.46-.68.86-.06,1.72.05,2.54.32,1.55.52,2.84,1.62,3.61,3.07-1.22-.75-2.58-1.25-4-1.48-1.27-.15-2.56.08-3.71.66-2.52,1.25-4.49,3.4-5.53,6.02h0Z"/>
  <path class="cls-9" d="m147.33,374.02c.6,1.47.64,3.1.12,4.6-.51,1.55-1.48,2.91-2.78,3.9-.67.52-1.43.91-2.25,1.12-.82.22-1.67.27-2.51.16-1.56-.23-2.98-1.02-4-2.22,1.33.44,2.72.63,4.12.58,1.24-.09,2.42-.54,3.4-1.31,1.03-.78,1.9-1.76,2.56-2.88.67-1.23,1.12-2.57,1.34-3.95Z"/>
  <path class="cls-9" d="m137.35,379.49c-.26-.49-.43-1.03-.49-1.58-.06-.55,0-1.11.16-1.65.32-1.13,1-2.12,1.94-2.82.48-.38,1.04-.65,1.63-.8.59-.15,1.21-.17,1.82-.07.55.09,1.08.3,1.55.61.47.31.88.71,1.19,1.17-.93-.19-1.88-.23-2.82-.13-.76.11-1.48.41-2.09.89-1.41,1.11-2.43,2.65-2.89,4.38Z"/>
  <path class="cls-9" d="m130.03,363.28c.43.4.77.88,1,1.41.24.53.36,1.11.37,1.69.01.63-.1,1.26-.33,1.84-.23.59-.58,1.12-1.03,1.57-.46.46-1.01.81-1.63,1.02s-1.27.28-1.91.19c-1.14-.13-2.2-.64-3-1.45,1,.03,2.01-.04,3-.21.78-.11,1.5-.46,2.07-1,.57-.59.99-1.31,1.22-2.1.24-.97.32-1.97.24-2.96h0Z"/>
  <path class="cls-9" d="m124.06,367.96c-.35-.24-.64-.56-.85-.93-.21-.37-.33-.79-.35-1.21-.02-.47.06-.94.23-1.37.17-.44.44-.83.77-1.16.34-.34.76-.6,1.22-.75.46-.15.95-.18,1.42-.1.41.06.81.2,1.16.42.35.21.66.5.91.83-.68.09-1.34.23-2,.41-.45.11-.86.35-1.18.67-.35.35-.62.76-.81,1.22-.26.63-.44,1.29-.52,1.97h0Z"/>
  <path class="cls-9" d="m196.14,348.99c.06.58,0,1.16-.16,1.72-.17.56-.46,1.07-.84,1.51-.41.48-.91.87-1.48,1.15-.56.28-1.18.45-1.8.49-.65.04-1.29-.07-1.89-.32-.6-.25-1.13-.63-1.56-1.12-.77-.86-1.23-1.95-1.3-3.1.73.69,1.53,1.3,2.38,1.84.66.43,1.44.64,2.23.6.82-.06,1.62-.32,2.31-.76.81-.55,1.52-1.23,2.11-2.01h0Z"/>
  <path class="cls-9" d="m188.57,348.52c-.1-.41-.11-.84-.02-1.26.09-.41.28-.8.55-1.13.29-.37.65-.67,1.06-.89s.87-.34,1.33-.37c.48-.03.96.05,1.41.24.44.19.83.49,1.13.87.54.65.79,1.48.71,2.32-.57-.39-1.17-.74-1.79-1.05-.41-.21-.87-.31-1.33-.28-.49.03-.97.16-1.41.37-.6.32-1.15.72-1.64,1.18h0Z"/>
  <path class="cls-9" d="m183.17,376.28c2.41-5.39,0-11.7-5.35-14.09-5.36-2.39-11.66.04-14.06,5.43-2.4,5.39,0,11.7,5.36,14.09,5.36,2.39,11.66-.04,14.06-5.43Z"/>
  <path class="cls-9" d="m178.45,366.98c1.39.62,2.61,1.56,3.57,2.74.95,1.18,1.61,2.58,1.92,4.07.3-1.77.14-3.58-.45-5.27-.59-1.69-1.6-3.21-2.93-4.4-1.33-1.2-2.94-2.04-4.69-2.45-1.74-.41-3.56-.38-5.29.1-1.72.48-3.3,1.39-4.58,2.64s-2.23,2.8-2.75,4.51c-.52,1.71-.61,3.53-.24,5.28.36,1.75,1.17,3.39,2.33,4.75-.61-1.78-.68-3.71-.22-5.53.47-1.83,1.46-3.48,2.85-4.75,1.39-1.27,3.12-2.11,4.98-2.42s3.77-.06,5.49.7v.03Z"/>
  <path class="cls-9" d="m188.2,373.79c.06,2.85-.76,5.64-2.35,8-1.6,2.41-3.82,4.35-6.43,5.61-2.66,1.34-5.74,1.62-8.6.79-2.73-.84-5.1-2.58-6.71-4.94,2.08,1.65,4.51,2.79,7.1,3.34.62.11,1.25.17,1.88.19.62.01,1.24-.03,1.85-.14,1.24-.19,2.43-.57,3.55-1.13.57-.28,1.14-.59,1.69-.92.55-.33,1.08-.69,1.57-1.1,1.02-.78,1.95-1.68,2.77-2.67,1.7-2.06,2.95-4.46,3.68-7.03h0Z"/>
  <path class="cls-9" d="m199.87,377.86c.77.18,1.58.12,2.32-.16.74-.28,1.38-.78,1.84-1.42.46-.64.72-1.41.74-2.2.02-.79-.19-1.57-.61-2.24s-1.03-1.2-1.76-1.53c-.72-.32-1.52-.42-2.31-.29-.78.13-1.5.49-2.08,1.04-.58.54-.98,1.25-1.15,2.02-.23,1.03-.05,2.11.51,3.01.56.9,1.46,1.53,2.49,1.77Z"/>
  <path class="cls-9" d="m202.24,371.78c.55.12,1.07.38,1.5.75.43.37.78.83,1,1.35,0-.68-.19-1.34-.52-1.93-.33-.59-.81-1.08-1.39-1.44-.58-.35-1.24-.55-1.91-.58-.68-.03-1.35.11-1.96.42-.61.3-1.13.76-1.51,1.31-.38.56-.62,1.21-.69,1.88-.07.67.04,1.36.31,1.98.27.62.69,1.16,1.23,1.58-.46-.79-.59-1.72-.38-2.6.21-.93.79-1.74,1.6-2.25.81-.51,1.79-.67,2.72-.46h0Z"/>
  <path class="cls-9" d="m206.31,373.58c.27,1.04.2,2.14-.2,3.13-.42,1.03-1.11,1.92-2,2.58-.9.7-2.04,1.02-3.18.89-1.07-.13-2.07-.63-2.8-1.43.89.41,1.86.62,2.84.61.91-.03,1.79-.35,2.51-.91.77-.58,1.42-1.31,1.91-2.15.49-.84.8-1.76.92-2.72Z"/>
  <path class="cls-9" d="m172.5,403.68c1.12.07,2.23-.2,3.19-.77.96-.57,1.74-1.41,2.23-2.41.49-1.01.67-2.14.51-3.24-.15-1.11-.63-2.15-1.37-2.98-.74-.84-1.72-1.43-2.8-1.72s-2.22-.24-3.28.12c-1.06.36-1.98,1.03-2.66,1.92-.68.89-1.08,1.96-1.14,3.08-.05.74.05,1.49.29,2.2.24.71.62,1.36,1.11,1.91.5.56,1.1,1.01,1.77,1.34.67.32,1.4.51,2.15.55Z"/>
  <path class="cls-9" d="m174.33,394.59c.8.04,1.58.28,2.28.68.7.4,1.28.97,1.72,1.65-.19-.93-.61-1.8-1.22-2.53-.61-.73-1.4-1.29-2.29-1.63-.89-.34-1.85-.45-2.79-.33-.94.13-1.84.49-2.6,1.06-.76.57-1.38,1.31-1.77,2.18-.4.86-.57,1.81-.51,2.76.07.95.37,1.86.89,2.67.52.8,1.22,1.46,2.06,1.91-.64-.77-1.04-1.71-1.15-2.7-.11-.99.07-1.99.51-2.89.45-.89,1.14-1.63,2.01-2.14s1.85-.74,2.85-.69h0Z"/>
  <path class="cls-9" d="m180.44,396.12c.55,1.39.67,2.92.33,4.38-.33,1.5-1.07,2.88-2.12,4-1.06,1.16-2.52,1.87-4.09,2-1.51.1-3-.3-4.25-1.15,1.34.44,2.76.56,4.15.33,1.32-.24,2.52-.92,3.42-1.91.94-1,1.65-2.18,2.1-3.48.45-1.34.6-2.76.46-4.17h0Z"/>
  <path class="cls-9" d="m147.26,349.03c-2.56,3.9-8.2,4.73-12.61,1.84-4.41-2.89-5.92-8.38-3.36-12.28,2.56-3.9,8.19-4.73,12.6-1.85,4.41,2.88,5.92,8.38,3.37,12.29Z"/>
  <path class="cls-9" d="m133.24,342.24c-.66,1.06-1.05,2.27-1.12,3.51-.07,1.25.17,2.49.7,3.62-2.94-3-3.69-7.48-1.53-10.79,2.55-3.9,8.2-4.73,12.61-1.85,1.48.91,2.68,2.21,3.48,3.74.8,1.54,1.18,3.26,1.09,4.99-.65-2.03-1.99-3.76-3.79-4.91-3.99-2.61-9.13-1.86-11.44,1.68Z"/>
  <path class="cls-9" d="m150.38,342.58c.65,1.01,1.1,2.14,1.31,3.32.21,1.18.19,2.39-.07,3.56-.27,1.23-.81,2.38-1.57,3.38-.76.99-1.7,1.84-2.76,2.51-1.1.62-2.31,1.03-3.56,1.21-1.21.15-2.44.11-3.64-.11-2.32-.4-4.51-1.35-6.39-2.77,2.14.63,4.34,1.01,6.57,1.14,2.06.15,4.12-.29,5.94-1.28.86-.54,1.63-1.21,2.28-2,.68-.76,1.21-1.64,1.56-2.6.69-2.05.8-4.25.33-6.36h0Z"/>
</svg>